<?xml version="1.0" encoding="utf-8"?>
<!-- Generator: Adobe Illustrator 16.0.0, SVG Export Plug-In . SVG Version: 6.00 Build 0)  -->
<!DOCTYPE svg PUBLIC "-//W3C//DTD SVG 1.1//EN" "http://www.w3.org/Graphics/SVG/1.1/DTD/svg11.dtd">
<svg version="1.1" id="Layer_1" xmlns="http://www.w3.org/2000/svg" xmlns:xlink="http://www.w3.org/1999/xlink" x="0px" y="0px"
	 width="524px" height="218px" viewBox="0 0 524 218" enable-background="new 0 0 524 218" xml:space="preserve">
<g>
	<path fill="#E7AA3E" d="M209.936,165.918c0,1.689-0.386,3.196-1.156,4.521c-0.771,1.324-1.873,2.444-3.304,3.36
		s-3.175,1.61-5.231,2.083s-4.393,0.709-7.009,0.709c-2.393,0-4.572-0.223-6.539-0.666s-3.655-1.099-5.063-1.965
		s-2.493-1.95-3.253-3.253s-1.14-2.807-1.14-4.51v-17.244c0-0.114,0.044-0.215,0.134-0.301c0.089-0.086,0.246-0.153,0.47-0.204
		c0.223-0.05,0.514-0.093,0.872-0.129c0.356-0.035,0.826-0.054,1.408-0.054c0.536,0,0.994,0.019,1.375,0.054
		c0.38,0.036,0.676,0.079,0.889,0.129c0.212,0.051,0.363,0.118,0.452,0.204s0.135,0.187,0.135,0.301v16.793
		c0,1.288,0.245,2.412,0.737,3.371c0.491,0.96,1.201,1.758,2.13,2.395c0.927,0.638,2.045,1.117,3.354,1.439
		c1.308,0.321,2.777,0.482,4.409,0.482c1.677,0,3.169-0.157,4.477-0.472c1.309-0.315,2.415-0.788,3.32-1.418s1.598-1.41,2.079-2.341
		c0.48-0.931,0.721-2.019,0.721-3.264v-16.986c0-0.114,0.045-0.215,0.135-0.301c0.089-0.086,0.245-0.153,0.469-0.204
		c0.224-0.05,0.521-0.093,0.889-0.129c0.369-0.035,0.833-0.054,1.392-0.054c0.537,0,0.989,0.019,1.358,0.054
		c0.369,0.036,0.659,0.079,0.872,0.129c0.212,0.051,0.369,0.118,0.47,0.204s0.15,0.187,0.15,0.301V165.918z"/>
	<path fill="#E7AA3E" d="M248.567,149.983c0,0.272-0.022,0.509-0.066,0.709c-0.046,0.2-0.118,0.361-0.219,0.483
		c-0.101,0.121-0.224,0.211-0.368,0.269c-0.146,0.057-0.308,0.086-0.486,0.086h-12.207v24.094c0,0.115-0.045,0.215-0.134,0.301
		c-0.09,0.086-0.246,0.154-0.47,0.204c-0.224,0.051-0.52,0.093-0.889,0.129c-0.368,0.035-0.833,0.054-1.392,0.054
		c-0.536,0-0.995-0.019-1.375-0.054c-0.38-0.036-0.682-0.078-0.905-0.129c-0.224-0.05-0.38-0.118-0.47-0.204
		c-0.089-0.086-0.134-0.186-0.134-0.301V151.53h-12.206c-0.18,0-0.342-0.029-0.486-0.086c-0.146-0.058-0.264-0.147-0.353-0.269
		c-0.09-0.122-0.162-0.283-0.218-0.483s-0.084-0.437-0.084-0.709c0-0.271,0.028-0.512,0.084-0.719
		c0.056-0.208,0.128-0.376,0.218-0.505c0.089-0.129,0.207-0.222,0.353-0.279c0.145-0.057,0.307-0.086,0.486-0.086h30.181
		c0.179,0,0.341,0.029,0.486,0.086c0.145,0.058,0.268,0.15,0.368,0.279s0.173,0.297,0.219,0.505
		C248.545,149.472,248.567,149.712,248.567,149.983z"/>
	<path fill="#E7AA3E" d="M281.968,174.873c0.179,0.314,0.273,0.568,0.285,0.762c0.011,0.193-0.073,0.341-0.252,0.44
		c-0.179,0.101-0.475,0.164-0.889,0.193c-0.414,0.028-0.967,0.043-1.66,0.043c-0.692,0-1.246-0.011-1.659-0.032
		c-0.414-0.021-0.728-0.058-0.939-0.107c-0.213-0.05-0.369-0.118-0.47-0.204s-0.195-0.193-0.284-0.322l-3.723-6.765h-18.042
		l-3.554,6.679c-0.067,0.129-0.157,0.24-0.269,0.333c-0.112,0.094-0.274,0.172-0.486,0.236c-0.213,0.064-0.515,0.11-0.905,0.14
		c-0.392,0.028-0.9,0.043-1.526,0.043c-0.648,0-1.179-0.019-1.593-0.054c-0.414-0.036-0.704-0.104-0.872-0.204
		c-0.167-0.1-0.246-0.247-0.234-0.44c0.011-0.193,0.105-0.447,0.285-0.762l14.554-25.813c0.089-0.157,0.206-0.286,0.353-0.387
		c0.145-0.101,0.357-0.179,0.637-0.236c0.279-0.057,0.638-0.097,1.073-0.118s0.989-0.032,1.66-0.032
		c0.715,0,1.308,0.011,1.777,0.032c0.469,0.021,0.849,0.062,1.14,0.118c0.29,0.058,0.515,0.14,0.671,0.247s0.279,0.24,0.369,0.397
		L281.968,174.873z M263.289,152.088h-0.033l-7.479,13.852h15.091L263.289,152.088z"/>
</g>
<path fill="#473267" d="M24.921,189.921"/>
<g>
	<path fill="#12143C" d="M182.673,104.742v12.588h6.999c1.815,0,3.029-0.273,3.64-0.822c0.813-0.72,1.269-1.988,1.362-3.805h0.869
		v11.086h-0.869c-0.22-1.551-0.439-2.545-0.658-2.982c-0.281-0.549-0.744-0.979-1.385-1.293c-0.643-0.313-1.629-0.469-2.959-0.469
		h-6.999v10.498c0,1.408,0.062,2.266,0.188,2.571c0.125,0.306,0.344,0.548,0.656,0.728c0.313,0.181,0.908,0.271,1.785,0.271h5.402
		c1.8,0,3.107-0.125,3.922-0.376c0.813-0.25,1.597-0.743,2.348-1.479c0.971-0.971,1.965-2.435,2.982-4.392h0.939l-2.747,7.984
		h-24.542v-0.869h1.127c0.752,0,1.465-0.18,2.138-0.539c0.501-0.25,0.841-0.627,1.021-1.128c0.18-0.501,0.271-1.526,0.271-3.076
		v-20.69c0-2.02-0.204-3.265-0.611-3.734c-0.563-0.626-1.503-0.939-2.818-0.939h-1.127v-0.869h24.542l0.353,6.976h-0.916
		c-0.329-1.675-0.693-2.826-1.092-3.452c-0.4-0.627-0.99-1.104-1.773-1.434c-0.627-0.234-1.73-0.352-3.312-0.352H182.673z"/>
	<path fill="#12143C" d="M209.774,117.26c2.521-3.037,4.924-4.557,7.21-4.557c1.174,0,2.184,0.294,3.029,0.881
		c0.846,0.588,1.52,1.555,2.02,2.9c0.345,0.939,0.518,2.381,0.518,4.322v9.182c0,1.362,0.109,2.287,0.328,2.771
		c0.172,0.392,0.45,0.697,0.834,0.916c0.383,0.22,1.092,0.328,2.125,0.328v0.846h-10.639v-0.846h0.447
		c1.001,0,1.702-0.152,2.102-0.457c0.398-0.306,0.677-0.756,0.834-1.351c0.063-0.235,0.094-0.971,0.094-2.208v-8.807
		c0-1.957-0.255-3.378-0.764-4.262c-0.509-0.885-1.366-1.328-2.572-1.328c-1.863,0-3.719,1.019-5.565,3.054v11.343
		c0,1.457,0.086,2.357,0.259,2.701c0.219,0.454,0.52,0.787,0.904,0.998c0.383,0.211,1.162,0.316,2.336,0.316v0.846h-10.639v-0.846
		h0.471c1.096,0,1.835-0.277,2.219-0.833c0.383-0.556,0.575-1.616,0.575-3.183v-7.984c0-2.584-0.059-4.157-0.177-4.721
		c-0.117-0.563-0.297-0.947-0.539-1.15c-0.243-0.203-0.568-0.306-0.975-0.306c-0.439,0-0.963,0.118-1.574,0.353l-0.352-0.846
		l6.481-2.631h1.01V117.26z"/>
	<path fill="#12143C" d="M233.307,127.006c-1.314-0.642-2.325-1.538-3.029-2.689c-0.705-1.15-1.057-2.422-1.057-3.816
		c0-2.129,0.802-3.961,2.406-5.494c1.605-1.535,3.66-2.303,6.166-2.303c2.051,0,3.828,0.502,5.33,1.504h4.557
		c0.673,0,1.064,0.02,1.174,0.059s0.188,0.105,0.235,0.199c0.094,0.141,0.141,0.392,0.141,0.752c0,0.407-0.039,0.689-0.117,0.846
		c-0.047,0.078-0.13,0.141-0.247,0.188s-0.513,0.07-1.186,0.07h-2.795c0.877,1.127,1.315,2.568,1.315,4.321
		c0,2.005-0.768,3.719-2.302,5.144c-1.535,1.425-3.594,2.137-6.177,2.137c-1.064,0-2.153-0.156-3.265-0.47
		c-0.688,0.595-1.154,1.116-1.396,1.562c-0.243,0.447-0.364,0.826-0.364,1.139c0,0.268,0.129,0.525,0.388,0.775
		c0.258,0.251,0.763,0.432,1.514,0.541c0.439,0.063,1.535,0.117,3.289,0.164c3.225,0.078,5.314,0.188,6.27,0.328
		c1.457,0.204,2.619,0.744,3.488,1.621s1.303,1.957,1.303,3.24c0,1.77-0.83,3.43-2.488,4.979c-2.443,2.286-5.629,3.429-9.559,3.429
		c-3.022,0-5.574-0.682-7.656-2.043c-1.175-0.783-1.762-1.598-1.762-2.443c0-0.375,0.086-0.751,0.258-1.127
		c0.267-0.579,0.814-1.385,1.645-2.418c0.109-0.142,0.908-0.986,2.396-2.537c-0.814-0.484-1.39-0.92-1.726-1.303
		c-0.338-0.385-0.506-0.818-0.506-1.305c0-0.547,0.223-1.189,0.67-1.926C230.664,129.395,231.693,128.354,233.307,127.006z
		 M233.072,134.85c-0.736,0.799-1.292,1.543-1.668,2.231c-0.375,0.688-0.563,1.323-0.563,1.902c0,0.751,0.454,1.409,1.362,1.973
		c1.565,0.971,3.828,1.456,6.787,1.456c2.818,0,4.896-0.497,6.235-1.491s2.008-2.055,2.008-3.183c0-0.814-0.399-1.393-1.198-1.737
		c-0.814-0.345-2.427-0.548-4.838-0.61C237.675,135.297,234.967,135.116,233.072,134.85z M237.393,113.831
		c-1.158,0-2.129,0.462-2.912,1.386s-1.174,2.34-1.174,4.25c0,2.475,0.532,4.393,1.598,5.754c0.813,1.033,1.847,1.551,3.1,1.551
		c1.189,0,2.168-0.446,2.936-1.339c0.767-0.893,1.15-2.294,1.15-4.204c0-2.489-0.54-4.438-1.62-5.848
		C239.672,114.348,238.646,113.831,237.393,113.831z"/>
	<path fill="#12143C" d="M259,101.454v28.534c0,1.348,0.098,2.24,0.293,2.678c0.195,0.438,0.497,0.771,0.904,0.998
		c0.406,0.227,1.166,0.34,2.279,0.34v0.846h-10.546v-0.846c0.986,0,1.659-0.102,2.02-0.305s0.642-0.54,0.846-1.01
		c0.203-0.47,0.306-1.369,0.306-2.701v-19.539c0-2.427-0.056-3.918-0.165-4.475c-0.11-0.555-0.286-0.936-0.528-1.139
		c-0.243-0.203-0.552-0.305-0.928-0.305c-0.407,0-0.924,0.125-1.55,0.375l-0.399-0.822l6.412-2.63H259z"/>
	<path fill="#12143C" d="M272.387,112.703v17.285c0,1.348,0.096,2.243,0.293,2.689c0.195,0.446,0.484,0.779,0.869,0.998
		c0.383,0.22,1.084,0.328,2.102,0.328v0.846h-10.451v-0.846c1.049,0,1.754-0.102,2.113-0.305c0.361-0.203,0.646-0.54,0.857-1.01
		s0.316-1.369,0.316-2.701v-8.29c0-2.333-0.07-3.843-0.211-4.532c-0.109-0.501-0.281-0.85-0.516-1.045
		c-0.236-0.195-0.557-0.294-0.963-0.294c-0.439,0-0.971,0.118-1.598,0.353l-0.328-0.846l6.48-2.631H272.387z M270.436,101.454
		c0.658,0,1.219,0.231,1.68,0.692c0.463,0.463,0.693,1.021,0.693,1.68s-0.23,1.221-0.693,1.691c-0.461,0.469-1.021,0.704-1.68,0.704
		c-0.656,0-1.221-0.235-1.689-0.704c-0.471-0.471-0.705-1.033-0.705-1.691s0.23-1.217,0.693-1.68
		C269.195,101.686,269.764,101.454,270.436,101.454z"/>
	<path fill="#12143C" d="M292.23,112.703v7.328h-0.775c-0.594-2.302-1.357-3.867-2.289-4.697s-2.117-1.244-3.559-1.244
		c-1.096,0-1.98,0.289-2.652,0.868c-0.674,0.579-1.01,1.222-1.01,1.926c0,0.878,0.25,1.629,0.75,2.255
		c0.486,0.643,1.473,1.323,2.959,2.043l3.43,1.668c3.178,1.55,4.768,3.593,4.768,6.129c0,1.957-0.74,3.535-2.219,4.732
		c-1.48,1.197-3.137,1.797-4.969,1.797c-1.314,0-2.816-0.234-4.508-0.705c-0.518-0.156-0.939-0.234-1.27-0.234
		c-0.359,0-0.641,0.203-0.844,0.61h-0.775v-7.68h0.775c0.438,2.192,1.275,3.845,2.512,4.956s2.623,1.667,4.158,1.667
		c1.08,0,1.961-0.317,2.641-0.951c0.682-0.634,1.021-1.397,1.021-2.29c0-1.08-0.379-1.988-1.139-2.725
		c-0.76-0.735-2.273-1.667-4.545-2.794c-2.27-1.128-3.756-2.146-4.461-3.054c-0.705-0.893-1.057-2.02-1.057-3.381
		c0-1.77,0.605-3.249,1.82-4.439c1.213-1.189,2.781-1.785,4.707-1.785c0.846,0,1.871,0.181,3.078,0.541
		c0.797,0.234,1.33,0.352,1.596,0.352c0.25,0,0.447-0.055,0.588-0.164s0.305-0.352,0.492-0.729H292.23z"/>
	<path fill="#12143C" d="M303.363,101.454v15.735c1.738-1.91,3.115-3.135,4.133-3.676c1.018-0.54,2.035-0.811,3.053-0.811
		c1.223,0,2.271,0.338,3.148,1.01c0.875,0.674,1.525,1.73,1.949,3.171c0.297,1.003,0.445,2.834,0.445,5.495v7.609
		c0,1.362,0.109,2.295,0.328,2.795c0.156,0.376,0.424,0.674,0.799,0.893c0.377,0.22,1.064,0.328,2.066,0.328v0.846h-10.568v-0.846
		h0.494c1.002,0,1.699-0.152,2.09-0.457c0.391-0.306,0.666-0.756,0.822-1.351c0.047-0.251,0.07-0.986,0.07-2.208v-7.609
		c0-2.348-0.121-3.89-0.363-4.626c-0.244-0.735-0.631-1.288-1.164-1.655c-0.531-0.368-1.174-0.553-1.926-0.553
		c-0.766,0-1.564,0.204-2.395,0.611s-1.824,1.229-2.982,2.466v11.366c0,1.473,0.082,2.389,0.246,2.748
		c0.164,0.36,0.471,0.662,0.916,0.904c0.447,0.242,1.217,0.363,2.313,0.363v0.846h-10.662v-0.846c0.955,0,1.707-0.148,2.256-0.445
		c0.313-0.156,0.563-0.454,0.752-0.893c0.188-0.438,0.281-1.33,0.281-2.678V110.52c0-2.458-0.059-3.969-0.176-4.533
		c-0.117-0.563-0.299-0.947-0.541-1.15s-0.568-0.305-0.975-0.305c-0.328,0-0.861,0.125-1.598,0.375l-0.328-0.822l6.436-2.63H303.363
		z"/>
	<path fill="#12143C" d="M353.621,124.188h-12.33l-2.16,5.026c-0.533,1.237-0.799,2.161-0.799,2.771c0,0.486,0.23,0.912,0.693,1.28
		c0.461,0.368,1.459,0.606,2.994,0.716v0.869h-10.027v-0.869c1.33-0.234,2.191-0.539,2.582-0.915
		c0.799-0.752,1.684-2.278,2.654-4.579l11.203-26.21h0.822l11.084,26.491c0.893,2.129,1.703,3.511,2.432,4.145
		c0.727,0.635,1.74,0.99,3.041,1.068v0.869h-12.564v-0.869c1.268-0.062,2.125-0.273,2.57-0.633c0.447-0.36,0.67-0.799,0.67-1.316
		c0-0.688-0.313-1.776-0.939-3.264L353.621,124.188z M352.963,122.45l-5.4-12.87l-5.543,12.87H352.963z"/>
	<path fill="#12143C" d="M386.125,126.678c-0.58,2.834-1.715,5.014-3.406,6.54s-3.563,2.29-5.613,2.29
		c-2.441,0-4.57-1.025-6.387-3.076s-2.725-4.822-2.725-8.314c0-3.382,1.006-6.129,3.018-8.243s4.428-3.171,7.246-3.171
		c2.113,0,3.852,0.561,5.213,1.68s2.043,2.282,2.043,3.488c0,0.594-0.191,1.076-0.574,1.443c-0.385,0.368-0.92,0.553-1.609,0.553
		c-0.924,0-1.621-0.298-2.09-0.893c-0.268-0.329-0.443-0.955-0.529-1.879s-0.402-1.629-0.951-2.113
		c-0.549-0.471-1.307-0.705-2.277-0.705c-1.566,0-2.826,0.579-3.781,1.738c-1.268,1.534-1.902,3.562-1.902,6.082
		c0,2.568,0.629,4.834,1.891,6.799c1.26,1.965,2.963,2.947,5.107,2.947c1.535,0,2.912-0.523,4.133-1.573
		c0.861-0.72,1.699-2.027,2.514-3.922L386.125,126.678z"/>
	<path fill="#12143C" d="M401.389,131.75c-2.207,1.707-3.592,2.693-4.156,2.959c-0.846,0.392-1.746,0.588-2.701,0.588
		c-1.486,0-2.711-0.51-3.674-1.527s-1.445-2.355-1.445-4.016c0-1.049,0.234-1.957,0.705-2.725c0.641-1.064,1.758-2.066,3.346-3.006
		c1.59-0.939,4.232-2.082,7.926-3.429v-0.846c0-2.145-0.34-3.616-1.021-4.415c-0.68-0.799-1.67-1.197-2.971-1.197
		c-0.986,0-1.77,0.266-2.348,0.798c-0.596,0.532-0.893,1.144-0.893,1.832l0.047,1.362c0,0.721-0.184,1.275-0.553,1.668
		c-0.367,0.391-0.85,0.586-1.443,0.586c-0.58,0-1.053-0.203-1.422-0.61c-0.367-0.407-0.551-0.963-0.551-1.667
		c0-1.347,0.689-2.584,2.066-3.711s3.311-1.691,5.801-1.691c1.91,0,3.477,0.322,4.697,0.963c0.924,0.486,1.605,1.245,2.043,2.279
		c0.281,0.673,0.422,2.051,0.422,4.133v7.304c0,2.052,0.039,3.308,0.119,3.77c0.078,0.462,0.207,0.771,0.387,0.927
		c0.18,0.157,0.387,0.235,0.623,0.235c0.25,0,0.469-0.055,0.656-0.164c0.33-0.204,0.963-0.774,1.902-1.714v1.314
		c-1.754,2.349-3.428,3.523-5.025,3.523c-0.768,0-1.377-0.268-1.832-0.799C401.641,133.942,401.404,133.034,401.389,131.75z
		 M401.389,130.224v-8.196c-2.363,0.939-3.891,1.605-4.578,1.996c-1.238,0.689-2.123,1.409-2.654,2.16
		c-0.533,0.752-0.799,1.574-0.799,2.467c0,1.127,0.336,2.063,1.01,2.807c0.674,0.743,1.449,1.115,2.326,1.115
		C397.883,132.572,399.447,131.789,401.389,130.224z"/>
	<path fill="#12143C" d="M425.744,132.432c-1.051,1.096-2.076,1.883-3.078,2.359c-1.002,0.478-2.082,0.717-3.24,0.717
		c-2.348,0-4.4-0.982-6.152-2.947c-1.754-1.965-2.631-4.49-2.631-7.574s0.971-5.906,2.912-8.467c1.941-2.56,4.439-3.84,7.492-3.84
		c1.895,0,3.459,0.604,4.697,1.809v-3.969c0-2.458-0.059-3.969-0.178-4.533c-0.117-0.563-0.301-0.947-0.551-1.15
		s-0.564-0.305-0.939-0.305c-0.408,0-0.947,0.125-1.621,0.375l-0.305-0.822l6.412-2.63h1.057v24.871c0,2.521,0.059,4.06,0.176,4.614
		c0.117,0.557,0.305,0.943,0.563,1.163c0.26,0.22,0.561,0.329,0.904,0.329c0.424,0,0.986-0.133,1.691-0.4l0.258,0.822l-6.387,2.654
		h-1.08V132.432z M425.744,130.787v-11.085c-0.096-1.064-0.377-2.035-0.846-2.912c-0.471-0.876-1.092-1.538-1.867-1.984
		s-1.531-0.669-2.268-0.669c-1.377,0-2.605,0.618-3.686,1.855c-1.426,1.628-2.139,4.008-2.139,7.139c0,3.163,0.689,5.586,2.068,7.27
		c1.377,1.683,2.912,2.523,4.602,2.523C423.035,132.924,424.412,132.212,425.744,130.787z"/>
	<path fill="#12143C" d="M438.215,121.439c-0.018,3.195,0.758,5.699,2.324,7.516c1.564,1.816,3.406,2.725,5.52,2.725
		c1.408,0,2.633-0.388,3.676-1.162c1.041-0.775,1.914-2.103,2.617-3.981l0.729,0.47c-0.328,2.146-1.283,4.098-2.865,5.859
		s-3.563,2.643-5.941,2.643c-2.584,0-4.795-1.006-6.635-3.018s-2.76-4.717-2.76-8.114c0-3.679,0.943-6.548,2.83-8.607
		c1.887-2.059,4.254-3.089,7.104-3.089c2.412,0,4.393,0.795,5.943,2.385c1.549,1.589,2.324,3.715,2.324,6.375H438.215z
		 M438.215,120.078h9.957c-0.078-1.378-0.242-2.349-0.494-2.912c-0.391-0.877-0.975-1.565-1.748-2.066
		c-0.775-0.502-1.586-0.752-2.432-0.752c-1.299,0-2.463,0.505-3.488,1.515S438.387,118.277,438.215,120.078z"/>
	<path fill="#12143C" d="M462.332,117.283c1.566-1.565,2.49-2.466,2.771-2.701c0.705-0.594,1.465-1.057,2.279-1.385
		c0.813-0.329,1.619-0.494,2.418-0.494c1.348,0,2.506,0.393,3.477,1.175c0.971,0.783,1.619,1.918,1.949,3.405
		c1.611-1.879,2.975-3.111,4.086-3.699c1.111-0.587,2.254-0.881,3.43-0.881c1.143,0,2.156,0.294,3.041,0.881
		c0.885,0.588,1.584,1.547,2.102,2.877c0.344,0.908,0.516,2.334,0.516,4.274v9.253c0,1.348,0.104,2.271,0.307,2.771
		c0.156,0.345,0.445,0.639,0.869,0.881c0.422,0.242,1.111,0.363,2.066,0.363v0.846h-10.615v-0.846h0.445
		c0.924,0,1.645-0.18,2.162-0.539c0.359-0.25,0.617-0.65,0.773-1.198c0.063-0.267,0.094-1.024,0.094-2.278v-9.253
		c0-1.753-0.211-2.99-0.633-3.71c-0.611-1.002-1.59-1.504-2.936-1.504c-0.83,0-1.664,0.208-2.502,0.623
		c-0.838,0.414-1.852,1.186-3.041,2.313l-0.047,0.259l0.047,1.01v10.263c0,1.473,0.082,2.389,0.246,2.748
		c0.164,0.36,0.475,0.662,0.928,0.904c0.455,0.242,1.229,0.363,2.326,0.363v0.846h-10.875v-0.846c1.189,0,2.008-0.141,2.455-0.422
		c0.445-0.281,0.756-0.705,0.928-1.269c0.078-0.266,0.117-1.041,0.117-2.325v-9.253c0-1.753-0.258-3.014-0.775-3.78
		c-0.689-1.002-1.652-1.504-2.889-1.504c-0.846,0-1.684,0.228-2.512,0.682c-1.301,0.689-2.303,1.464-3.008,2.324v11.531
		c0,1.41,0.098,2.325,0.295,2.748c0.195,0.423,0.484,0.74,0.869,0.951c0.383,0.211,1.162,0.316,2.336,0.316v0.846h-10.639v-0.846
		c0.986,0,1.676-0.105,2.066-0.316s0.689-0.548,0.893-1.01c0.203-0.461,0.305-1.357,0.305-2.689v-8.219
		c0-2.365-0.07-3.891-0.211-4.58c-0.109-0.517-0.281-0.873-0.516-1.068c-0.236-0.195-0.557-0.294-0.963-0.294
		c-0.439,0-0.963,0.118-1.574,0.353l-0.352-0.846l6.48-2.631h1.01V117.283z"/>
	<path fill="#12143C" d="M492.137,113.338h10.027v0.869h-0.494c-0.703,0-1.232,0.152-1.584,0.457
		c-0.354,0.306-0.529,0.686-0.529,1.14c0,0.61,0.26,1.456,0.775,2.536l5.236,10.851l4.814-11.884c0.268-0.642,0.4-1.275,0.4-1.902
		c0-0.281-0.055-0.493-0.164-0.634c-0.127-0.173-0.322-0.31-0.588-0.411s-0.736-0.152-1.408-0.152v-0.869h6.998v0.869
		c-0.58,0.063-1.025,0.188-1.338,0.375c-0.314,0.188-0.658,0.541-1.035,1.057c-0.141,0.221-0.406,0.822-0.797,1.809l-8.76,21.466
		c-0.846,2.082-1.955,3.655-3.324,4.72c-1.369,1.066-2.689,1.598-3.957,1.598c-0.924,0-1.684-0.266-2.277-0.799
		c-0.596-0.532-0.893-1.143-0.893-1.832c0-0.657,0.215-1.186,0.645-1.584c0.432-0.4,1.021-0.6,1.773-0.6
		c0.518,0,1.221,0.172,2.113,0.517c0.627,0.235,1.018,0.353,1.176,0.353c0.469,0,0.982-0.243,1.537-0.729
		c0.557-0.485,1.115-1.424,1.68-2.818l1.527-3.734l-7.727-16.228c-0.236-0.485-0.611-1.088-1.129-1.808
		c-0.391-0.549-0.713-0.916-0.963-1.104c-0.359-0.251-0.939-0.47-1.736-0.657V113.338z"/>
</g>
<path fill="#473267" d="M24.923,194.421"/>
<g>
	<g>
		<defs>
			<path id="SVGID_5_" d="M184.476,74.956c-14.545,15.449-33.529,36.18-33.834,68.588c-0.301,32.41,23.217,50.272,47.174,57.005
				c0,0-29.827-1.475-32.94-1.178c-39.67,3.788-39.446,3.767-129.085,9.165l-18.313-4.852l6.742-64.496l41.758-79.205l86.096-48.008
				l19.844,5.254L184.476,74.956"/>
		</defs>
		<clipPath id="SVGID_2_">
			<use xlink:href="#SVGID_5_"  overflow="visible"/>
		</clipPath>
		<path clip-path="url(#SVGID_2_)" fill="#253370" d="M30.111,177.537c0,0,19.389,10.906,47.16,15.117
			c17.316,2.627,64.33,5.281,94.268,6.781c4.618,0.141,10.771,0.398,15.962,0.631c-0.686-0.054-1.401-0.111-2.144-0.173
			c-24.252-1.408-76.818-5.141-92.787-11.767c-2.396-0.994-4.696-1.97-6.901-2.925L30.111,177.537"/>
		<path clip-path="url(#SVGID_2_)" fill="#63315E" d="M47.016,129.785c0,0,9.606,20.108,34.246,38.224l35.248,9.841
			c-3.5-2.097-6.869-4.4-10.041-6.93c-9.414-7.507-16.831-15.729-22.662-23.841L47.016,129.785"/>
		<path clip-path="url(#SVGID_2_)" fill="#272549" d="M185.357,199.894c0.742,0.062,1.458,0.119,2.144,0.173
			c2.013,0.09,3.881,0.176,5.458,0.25c-0.035-0.004-0.073-0.008-0.109-0.011C190.852,200.202,188.317,200.065,185.357,199.894"/>
		<path clip-path="url(#SVGID_2_)" fill="#7B2F55" d="M63.129,99.686c0,0,3.272,23.188,20.678,47.394l27.218,12.795
			c-9.618-12.966-15.718-26.371-19.527-38.918L63.129,99.686"/>
		<path clip-path="url(#SVGID_2_)" fill="#41273D" d="M83.807,147.079c5.831,8.111,13.248,16.334,22.662,23.841
			c3.172,2.529,6.541,4.833,10.041,6.93l21.457,5.99c-8.473-4.824-16.51-11.023-23.057-18.99c-1.354-1.648-2.65-3.31-3.886-4.976
			L83.807,147.079"/>
		<path clip-path="url(#SVGID_2_)" fill="#932C4B" d="M86.813,63.455c0,0-4.866,26.039,4.685,57.501l21.623,16.213
			c-5.13-16.575-6.027-32.645-4.746-47.061L86.813,63.455"/>
		<path clip-path="url(#SVGID_2_)" fill="#25212E" d="M192.85,200.306c0.036,0.003,0.074,0.007,0.109,0.011
			c0.258,0.012,0.508,0.023,0.75,0.035c-0.009-0.001-0.02-0.002-0.027-0.003C193.416,200.335,193.138,200.32,192.85,200.306"/>
		<path clip-path="url(#SVGID_2_)" fill="#582836" d="M91.497,120.956c3.81,12.547,9.909,25.952,19.527,38.918l18.051,8.485
			c-3.464-4.165-6.58-8.866-9.183-14.168c-2.799-5.702-5.03-11.393-6.772-17.022L91.497,120.956"/>
		<path clip-path="url(#SVGID_2_)" fill="#34242C" d="M111.024,159.874c1.235,1.666,2.531,3.327,3.886,4.976
			c6.547,7.967,14.584,14.166,23.057,18.99l16.721,4.668c-9.082-4.694-18.156-11.183-25.612-20.148L111.024,159.874"/>
		<path clip-path="url(#SVGID_2_)" fill="#AD273F" d="M126.916,30.697c0,0-15.483,24.994-18.542,59.411l17.022,21.043
			c1.817-17.55,7.83-34.125,14.926-48.313L126.916,30.697"/>
		<path clip-path="url(#SVGID_2_)" fill="#742830" d="M108.374,90.108c-1.281,14.416-0.384,30.485,4.746,47.061l15.69,11.765
			c-0.178-0.58-0.352-1.165-0.52-1.758c-3.451-12.157-4.107-24.31-2.895-36.024L108.374,90.108"/>
		<path clip-path="url(#SVGID_2_)" fill="#49252B" d="M113.12,137.169c1.742,5.63,3.974,11.32,6.772,17.022
			c2.603,5.302,5.719,10.003,9.183,14.168l13.771,6.474c-5.786-6.729-10.748-15.211-14.036-25.899L113.12,137.169"/>
		<path clip-path="url(#SVGID_2_)" fill="#2D2125" d="M129.075,168.359c7.456,8.966,16.53,15.454,25.612,20.148l8.178,2.283
			c-6.925-3.732-13.928-8.874-20.019-15.958L129.075,168.359"/>
		<path clip-path="url(#SVGID_2_)" fill="#C62032" d="M197.758,200.532L197.758,200.532l0.04,0.012l0,0
			C197.784,200.54,197.771,200.536,197.758,200.532 M171.145,17.611c0,0-17.359,18.309-30.822,45.227l18.95,45.43
			c5.758-11.411,13.585-20.737,20.899-28.697L171.145,17.611"/>
		<path clip-path="url(#SVGID_2_)" fill="#231F24" d="M193.682,200.349c0.008,0.001,0.019,0.002,0.027,0.003
			c0.167,0.008,0.33,0.016,0.488,0.023C194.031,200.366,193.857,200.357,193.682,200.349"/>
		<path clip-path="url(#SVGID_2_)" fill="#95262C" d="M197.687,200.513L197.687,200.513l0.071,0.02l0,0
			C197.732,200.525,197.711,200.52,197.687,200.513 M140.322,62.838c-7.096,14.188-13.108,30.764-14.926,48.313l25.265,31.23
			c0.308-13.174,3.71-24.4,8.611-34.114L140.322,62.838"/>
		<path clip-path="url(#SVGID_2_)" fill="#66262A" d="M197.55,200.474l0.002,0.002l0.135,0.037l0,0
			C197.641,200.5,197.596,200.486,197.55,200.474 M125.396,111.151c-1.213,11.715-0.557,23.867,2.895,36.024
			c0.168,0.593,0.342,1.178,0.52,1.758l27.828,20.865c-3.853-7.396-6.091-16.115-5.997-26.255c0.004-0.39,0.01-0.776,0.02-1.162
			L125.396,111.151"/>
		<path clip-path="url(#SVGID_2_)" fill="#412327" d="M197.143,200.356l0.021,0.011l0.388,0.108l-0.002-0.002
			C197.414,200.435,197.278,200.396,197.143,200.356 M128.811,148.934c3.288,10.688,8.25,19.171,14.036,25.899l31.613,14.86
			c-7.279-5.102-13.544-11.685-17.821-19.895L128.811,148.934"/>
		<path clip-path="url(#SVGID_2_)" fill="#291E22" d="M142.847,174.833c6.091,7.084,13.094,12.226,20.019,15.958l34.299,9.576
			l-0.021-0.011c-7.913-2.294-15.758-5.808-22.683-10.663L142.847,174.833"/>
		<path clip-path="url(#SVGID_2_)" fill="#473267" d="M34.875,155.059c0,0,7.261,11.283,50.794,30.144l50.883,7.02
			c-14.681-3.554-29.7-8.584-42.167-15.692c-4.78-2.726-9.148-5.598-13.123-8.521L34.875,155.059"/>
		<path clip-path="url(#SVGID_2_)" fill="#26244D" d="M85.669,185.202c2.205,0.955,4.506,1.931,6.901,2.925
			c15.969,6.626,68.535,10.358,92.787,11.767c-11.611-0.973-29.928-3.102-48.806-7.672L85.669,185.202"/>
		<path clip-path="url(#SVGID_2_)" fill="#302645" d="M81.262,168.009c3.975,2.923,8.343,5.795,13.123,8.521
			c12.467,7.108,27.486,12.139,42.167,15.692l38.929,5.37c-1.051-0.224-2.129-0.464-3.225-0.722
			c-16.529-2.949-37.869-8.31-55.746-19.021L81.262,168.009"/>
		<path clip-path="url(#SVGID_2_)" fill="#221E36" d="M136.552,192.222c18.878,4.57,37.194,6.699,48.806,7.672
			c2.96,0.172,5.494,0.309,7.492,0.412c-3.992-0.389-10.117-1.169-17.369-2.714L136.552,192.222"/>
		<path clip-path="url(#SVGID_2_)" fill="#272130" d="M116.51,177.85c17.877,10.711,39.217,16.071,55.746,19.021
			c-10.448-2.452-22.769-6.469-34.289-13.03L116.51,177.85"/>
		<path clip-path="url(#SVGID_2_)" fill="#2A222E" d="M172.256,196.87c1.096,0.258,2.174,0.498,3.225,0.722l9.557,1.318
			c-0.194-0.038-0.387-0.076-0.585-0.117C180.85,198.29,176.729,197.669,172.256,196.87"/>
		<path clip-path="url(#SVGID_2_)" fill="#1F1B24" d="M175.48,197.592c7.252,1.545,13.377,2.325,17.369,2.714
			c0.288,0.015,0.566,0.029,0.832,0.043c-2.188-0.245-5.131-0.674-8.576-1.425c-0.021-0.004-0.047-0.009-0.068-0.014L175.48,197.592
			"/>
		<path clip-path="url(#SVGID_2_)" fill="#231D24" d="M137.967,183.84c11.521,6.562,23.841,10.578,34.289,13.03
			c4.473,0.799,8.594,1.42,12.196,1.923c-8.105-1.644-18.939-4.689-29.765-10.285L137.967,183.84"/>
		<path clip-path="url(#SVGID_2_)" fill="#473267" d="M197.798,200.544l0.001,0.004c0.011,0.001,0.017,0.001,0.017,0.001l0,0l0,0
			L197.798,200.544"/>
		<path clip-path="url(#SVGID_2_)" fill="#261F24" d="M184.452,198.793c0.198,0.041,0.391,0.079,0.585,0.117l0.018,0.003
			c-0.145-0.032-0.289-0.063-0.436-0.097C184.563,198.809,184.508,198.801,184.452,198.793"/>
		<path clip-path="url(#SVGID_2_)" fill="#1C181D" d="M185.037,198.91c0.021,0.005,0.047,0.01,0.068,0.014
			c-0.017-0.003-0.034-0.007-0.051-0.011L185.037,198.91"/>
		<path clip-path="url(#SVGID_2_)" fill="#201B1F" d="M154.688,188.508c10.825,5.596,21.659,8.642,29.765,10.285
			c0.056,0.008,0.111,0.016,0.167,0.023c-6.192-1.385-13.923-3.804-21.754-8.025L154.688,188.508"/>
		<path clip-path="url(#SVGID_2_)" fill="#1D191D" d="M185.105,198.924c3.445,0.751,6.389,1.18,8.576,1.425
			c0.176,0.009,0.35,0.018,0.516,0.026c0.13,0.006,0.257,0.012,0.381,0.018C192.343,200.148,189.074,199.707,185.105,198.924"/>
		<path clip-path="url(#SVGID_2_)" fill="#442932" d="M197.758,200.532l0.006,0.014c0.015,0.001,0.026,0.002,0.035,0.002
			l-0.001-0.004L197.758,200.532"/>
		<path clip-path="url(#SVGID_2_)" fill="#3A272B" d="M197.687,200.513l0.025,0.031c0.02,0.001,0.037,0.002,0.052,0.002
			l-0.006-0.014L197.687,200.513"/>
		<path clip-path="url(#SVGID_2_)" fill="#2F2226" d="M197.552,200.476l0.087,0.064c0.027,0.001,0.052,0.003,0.073,0.004
			l-0.025-0.031L197.552,200.476"/>
		<path clip-path="url(#SVGID_2_)" fill="#231D21" d="M184.619,198.816c0.146,0.033,0.291,0.064,0.436,0.097l11.363,1.567
			c0.188,0.01,0.358,0.018,0.511,0.025C194.473,200.08,190.167,199.589,184.619,198.816"/>
		<path clip-path="url(#SVGID_2_)" fill="#1A161A" d="M185.055,198.913c0.017,0.004,0.034,0.008,0.051,0.011
			c3.969,0.783,7.237,1.225,9.473,1.469c0.72,0.034,1.34,0.064,1.84,0.088L185.055,198.913"/>
		<path clip-path="url(#SVGID_2_)" fill="#251D21" d="M197.164,200.367l0.356,0.167c0.044,0.002,0.084,0.004,0.118,0.006
			l-0.087-0.064L197.164,200.367"/>
		<path clip-path="url(#SVGID_2_)" fill="#1D181C" d="M162.865,190.791c7.831,4.222,15.562,6.641,21.754,8.025
			c5.548,0.772,9.854,1.264,12.31,1.689c0.247,0.012,0.445,0.021,0.592,0.028l-0.356-0.167L162.865,190.791"/>
	</g>
</g>
</svg>
