<?xml version="1.0" encoding="utf-8"?>
<!-- Generator: Adobe Illustrator 16.0.0, SVG Export Plug-In . SVG Version: 6.00 Build 0)  -->
<!DOCTYPE svg PUBLIC "-//W3C//DTD SVG 1.1//EN" "http://www.w3.org/Graphics/SVG/1.1/DTD/svg11.dtd">
<svg version="1.1" id="Layer_1" xmlns="http://www.w3.org/2000/svg" xmlns:xlink="http://www.w3.org/1999/xlink" x="0px" y="0px"
	 width="376px" height="282px" viewBox="0 0 376 282" enable-background="new 0 0 376 282" xml:space="preserve">
<g>
	<path fill="#E7AA3E" d="M166.619,253.172c0,1.676-0.383,3.172-1.148,4.484c-0.765,1.314-1.857,2.426-3.275,3.334
		c-1.42,0.908-3.15,1.598-5.189,2.066c-2.041,0.467-4.357,0.701-6.952,0.701c-2.373,0-4.534-0.219-6.485-0.66
		c-1.952-0.439-3.626-1.09-5.023-1.949c-1.396-0.857-2.473-1.934-3.227-3.227c-0.754-1.291-1.131-2.783-1.131-4.473v-17.104
		c0-0.113,0.045-0.213,0.133-0.299c0.089-0.086,0.244-0.152,0.467-0.203c0.221-0.049,0.51-0.092,0.864-0.127s0.82-0.053,1.397-0.053
		c0.531,0,0.986,0.018,1.363,0.053s0.67,0.078,0.881,0.127c0.211,0.051,0.361,0.117,0.449,0.203
		c0.089,0.086,0.133,0.186,0.133,0.299v16.656c0,1.277,0.244,2.393,0.732,3.344c0.487,0.951,1.191,1.744,2.112,2.375
		c0.92,0.633,2.028,1.107,3.326,1.428s2.755,0.479,4.374,0.479c1.663,0,3.143-0.156,4.44-0.469c1.298-0.311,2.396-0.779,3.293-1.404
		s1.585-1.398,2.062-2.322s0.716-2.002,0.716-3.238v-16.848c0-0.113,0.044-0.213,0.134-0.299c0.088-0.086,0.243-0.152,0.465-0.203
		c0.222-0.049,0.516-0.092,0.881-0.127c0.367-0.035,0.826-0.053,1.381-0.053c0.532,0,0.981,0.018,1.348,0.053
		c0.365,0.035,0.653,0.078,0.865,0.127c0.21,0.051,0.365,0.117,0.465,0.203s0.15,0.186,0.15,0.299V253.172z"/>
	<path fill="#E7AA3E" d="M204.937,237.367c0,0.27-0.022,0.504-0.066,0.703c-0.045,0.199-0.116,0.359-0.216,0.479
		c-0.1,0.121-0.223,0.211-0.366,0.268c-0.145,0.057-0.306,0.084-0.482,0.084h-12.107v23.9c0,0.113-0.045,0.213-0.134,0.297
		c-0.088,0.086-0.244,0.154-0.465,0.203c-0.223,0.051-0.516,0.092-0.881,0.127c-0.367,0.035-0.827,0.055-1.381,0.055
		c-0.532,0-0.987-0.02-1.363-0.055c-0.378-0.035-0.678-0.076-0.898-0.127c-0.223-0.049-0.378-0.117-0.466-0.203
		c-0.089-0.084-0.134-0.184-0.134-0.297v-23.9h-12.107c-0.178,0-0.338-0.027-0.482-0.084s-0.26-0.146-0.349-0.268
		c-0.089-0.119-0.161-0.279-0.216-0.479c-0.057-0.199-0.084-0.434-0.084-0.703s0.027-0.508,0.084-0.713
		c0.055-0.205,0.127-0.373,0.216-0.5c0.089-0.129,0.204-0.221,0.349-0.277s0.305-0.086,0.482-0.086h29.937
		c0.177,0,0.338,0.029,0.482,0.086c0.144,0.057,0.267,0.148,0.366,0.277c0.1,0.127,0.171,0.295,0.216,0.5
		C204.914,236.859,204.937,237.098,204.937,237.367z"/>
	<path fill="#E7AA3E" d="M238.066,262.055c0.177,0.313,0.271,0.564,0.282,0.756s-0.072,0.338-0.249,0.438
		c-0.178,0.1-0.472,0.162-0.882,0.191c-0.411,0.027-0.96,0.043-1.646,0.043c-0.688,0-1.236-0.012-1.646-0.033
		c-0.411-0.021-0.721-0.057-0.931-0.105c-0.211-0.051-0.367-0.117-0.467-0.203c-0.1-0.084-0.193-0.191-0.282-0.318l-3.692-6.711
		h-17.895l-3.525,6.625c-0.067,0.127-0.156,0.238-0.267,0.33c-0.111,0.092-0.272,0.17-0.482,0.234
		c-0.211,0.064-0.511,0.109-0.897,0.139c-0.389,0.027-0.894,0.043-1.514,0.043c-0.645,0-1.17-0.02-1.58-0.055
		c-0.411-0.035-0.699-0.102-0.865-0.201s-0.244-0.246-0.232-0.438c0.011-0.191,0.104-0.443,0.282-0.756l14.437-25.604
		c0.088-0.156,0.204-0.283,0.349-0.383c0.144-0.1,0.354-0.178,0.632-0.234s0.633-0.096,1.064-0.117
		c0.433-0.021,0.981-0.031,1.646-0.031c0.709,0,1.297,0.01,1.764,0.031c0.465,0.021,0.842,0.061,1.131,0.117
		c0.287,0.057,0.51,0.139,0.664,0.244c0.156,0.107,0.277,0.238,0.367,0.395L238.066,262.055z M219.539,239.455h-0.033l-7.418,13.738
		h14.969L219.539,239.455z"/>
</g>
<g>
	<g>
		<defs>
			<path id="SVGID_7_" d="M253.476,62.986c-14.545,15.449-33.529,36.18-33.834,68.588c-0.301,32.41,23.217,50.272,47.174,57.005
				c0,0-29.827-1.475-32.94-1.178c-39.67,3.788-39.446,3.767-129.085,9.165l-18.313-4.852l6.742-64.496l41.758-79.205l86.096-48.008
				l19.844,5.254L253.476,62.986"/>
		</defs>
		<clipPath id="SVGID_2_">
			<use xlink:href="#SVGID_7_"  overflow="visible"/>
		</clipPath>
		<path clip-path="url(#SVGID_2_)" fill="#253370" d="M99.111,165.567c0,0,19.389,10.906,47.16,15.117
			c17.314,2.627,64.313,5.28,94.25,6.781c4.616,0.14,10.771,0.397,15.965,0.63c-0.688-0.054-1.403-0.111-2.147-0.174
			c-24.26-1.408-76.804-5.141-92.769-11.765c-2.396-0.994-4.695-1.97-6.901-2.925L99.111,165.567"/>
		<path clip-path="url(#SVGID_2_)" fill="#63315E" d="M116.016,117.815c0,0,9.609,20.109,34.244,38.224l35.249,9.84
			c-3.5-2.097-6.868-4.399-10.04-6.929c-9.412-7.505-16.831-15.73-22.662-23.84L116.016,117.815"/>
		<path clip-path="url(#SVGID_2_)" fill="#272549" d="M254.339,187.922c0.744,0.063,1.46,0.12,2.147,0.174
			c2.014,0.09,3.884,0.176,5.464,0.25c-0.036-0.003-0.074-0.007-0.11-0.011C259.84,188.231,257.3,188.094,254.339,187.922"/>
		<path clip-path="url(#SVGID_2_)" fill="#7B2F55" d="M132.129,87.716c0,0,3.27,23.186,20.678,47.395l27.218,12.794
			c-9.618-12.965-15.719-26.371-19.527-38.918L132.129,87.716"/>
		<path clip-path="url(#SVGID_2_)" fill="#41273D" d="M152.807,135.11c5.831,8.109,13.25,16.335,22.662,23.84
			c3.172,2.529,6.54,4.832,10.04,6.929l21.457,5.991c-8.47-4.824-16.511-11.025-23.056-18.99c-1.354-1.648-2.65-3.31-3.886-4.976
			L152.807,135.11"/>
		<path clip-path="url(#SVGID_2_)" fill="#932C4B" d="M155.813,51.485c0,0-4.867,26.038,4.685,57.501l21.623,16.213
			c-5.13-16.575-6.027-32.645-4.746-47.061L155.813,51.485"/>
		<path clip-path="url(#SVGID_2_)" fill="#25212E" d="M261.84,188.335c0.036,0.004,0.074,0.008,0.11,0.011
			c0.259,0.012,0.509,0.024,0.752,0.035c-0.01-0.001-0.019-0.002-0.028-0.003C262.407,188.364,262.129,188.351,261.84,188.335"/>
		<path clip-path="url(#SVGID_2_)" fill="#582836" d="M160.497,108.986c3.809,12.547,9.909,25.953,19.527,38.918l18.051,8.486
			c-3.464-4.165-6.58-8.867-9.183-14.169c-2.799-5.701-5.03-11.394-6.772-17.022L160.497,108.986"/>
		<path clip-path="url(#SVGID_2_)" fill="#34242C" d="M180.024,147.904c1.235,1.666,2.531,3.327,3.886,4.976
			c6.545,7.965,14.586,14.166,23.056,18.99l16.722,4.668c-9.082-4.694-18.156-11.183-25.612-20.147L180.024,147.904"/>
		<path clip-path="url(#SVGID_2_)" fill="#AD273F" d="M195.916,18.728c0,0-15.483,24.994-18.542,59.411l17.022,21.043
			c1.817-17.55,7.83-34.126,14.926-48.313L195.916,18.728"/>
		<path clip-path="url(#SVGID_2_)" fill="#742830" d="M177.374,78.139c-1.281,14.416-0.384,30.485,4.746,47.061l15.69,11.765
			c-0.178-0.579-0.352-1.165-0.52-1.758c-3.451-12.157-4.107-24.31-2.895-36.024L177.374,78.139"/>
		<path clip-path="url(#SVGID_2_)" fill="#49252B" d="M182.12,125.199c1.742,5.629,3.974,11.321,6.772,17.022
			c2.603,5.302,5.719,10.004,9.183,14.169l13.771,6.474c-5.785-6.729-10.748-15.211-14.036-25.9L182.12,125.199"/>
		<path clip-path="url(#SVGID_2_)" fill="#2D2125" d="M198.075,156.391c7.456,8.965,16.53,15.453,25.612,20.147l8.177,2.283
			c-6.925-3.733-13.927-8.873-20.018-15.957L198.075,156.391"/>
		<path clip-path="url(#SVGID_2_)" fill="#C62032" d="M266.758,188.563L266.758,188.563l0.04,0.012
			C266.784,188.57,266.771,188.566,266.758,188.563 M240.145,5.642c0,0-17.359,18.309-30.822,45.227l18.95,45.43
			c5.758-11.411,13.585-20.737,20.899-28.697L240.145,5.642"/>
		<path clip-path="url(#SVGID_2_)" fill="#231F24" d="M262.674,188.378c0.01,0.001,0.019,0.002,0.028,0.003
			c0.169,0.008,0.334,0.016,0.495,0.023C263.028,188.396,262.854,188.387,262.674,188.378"/>
		<path clip-path="url(#SVGID_2_)" fill="#95262C" d="M266.686,188.542L266.686,188.542l0.072,0.021l0,0
			C266.732,188.556,266.711,188.549,266.686,188.542 M209.322,50.868c-7.096,14.188-13.108,30.764-14.926,48.313l25.264,31.23
			c0.309-13.174,3.711-24.4,8.612-34.114L209.322,50.868"/>
		<path clip-path="url(#SVGID_2_)" fill="#66262A" d="M266.549,188.504l0.002,0.001l0.135,0.038v-0.001
			C266.641,188.529,266.594,188.517,266.549,188.504 M194.396,99.182c-1.213,11.715-0.557,23.867,2.895,36.024
			c0.168,0.593,0.342,1.179,0.52,1.758l27.829,20.866c-3.854-7.398-6.092-16.114-5.998-26.256c0.004-0.39,0.01-0.776,0.019-1.162
			L194.396,99.182"/>
		<path clip-path="url(#SVGID_2_)" fill="#412327" d="M266.14,188.386l0.022,0.011l0.389,0.108l-0.002-0.001
			C266.413,188.465,266.275,188.426,266.14,188.386 M197.811,136.964c3.288,10.689,8.251,19.171,14.036,25.9l31.615,14.861
			c-7.277-5.102-13.546-11.688-17.822-19.896L197.811,136.964"/>
		<path clip-path="url(#SVGID_2_)" fill="#291E22" d="M211.847,162.864c6.091,7.084,13.093,12.224,20.018,15.957l34.298,9.575
			l-0.022-0.011c-7.913-2.294-15.752-5.806-22.678-10.66L211.847,162.864"/>
		<path clip-path="url(#SVGID_2_)" fill="#473267" d="M103.875,143.089c0,0,7.261,11.284,50.794,30.144l50.882,7.02
			c-14.681-3.554-29.699-8.584-42.166-15.692c-4.782-2.727-9.148-5.597-13.125-8.521L103.875,143.089"/>
		<path clip-path="url(#SVGID_2_)" fill="#26244D" d="M154.669,173.232c2.206,0.955,4.506,1.931,6.901,2.925
			c15.965,6.624,68.509,10.356,92.769,11.765c-11.612-0.973-29.921-3.103-48.788-7.67L154.669,173.232"/>
		<path clip-path="url(#SVGID_2_)" fill="#302645" d="M150.26,156.039c3.977,2.924,8.343,5.794,13.125,8.521
			c12.467,7.108,27.485,12.139,42.166,15.692l38.931,5.371c-1.052-0.225-2.128-0.465-3.223-0.722
			c-16.529-2.949-37.874-8.311-55.75-19.022L150.26,156.039"/>
		<path clip-path="url(#SVGID_2_)" fill="#221E36" d="M205.551,180.252c18.867,4.567,37.176,6.697,48.788,7.67
			c2.961,0.172,5.501,0.31,7.501,0.413c-3.992-0.389-10.112-1.169-17.358-2.712L205.551,180.252"/>
		<path clip-path="url(#SVGID_2_)" fill="#272130" d="M185.509,165.879c17.876,10.712,39.221,16.073,55.75,19.022
			c-10.45-2.453-22.771-6.469-34.293-13.031L185.509,165.879"/>
		<path clip-path="url(#SVGID_2_)" fill="#2A222E" d="M241.259,184.901c1.095,0.257,2.171,0.497,3.223,0.722l9.56,1.318
			c-0.192-0.038-0.388-0.077-0.584-0.117C249.853,186.321,245.733,185.7,241.259,184.901"/>
		<path clip-path="url(#SVGID_2_)" fill="#1F1B24" d="M244.481,185.623c7.246,1.543,13.366,2.323,17.358,2.712
			c0.289,0.016,0.567,0.029,0.834,0.043c-2.188-0.245-5.132-0.674-8.577-1.425c-0.02-0.004-0.035-0.008-0.056-0.012L244.481,185.623
			"/>
		<path clip-path="url(#SVGID_2_)" fill="#231D24" d="M206.966,171.87c11.522,6.563,23.843,10.578,34.293,13.031
			c4.475,0.799,8.594,1.42,12.198,1.923c-8.106-1.644-18.943-4.689-29.77-10.286L206.966,171.87"/>
		<path clip-path="url(#SVGID_2_)" fill="#473267" d="M266.798,188.574v0.004c0.012,0,0.018,0.001,0.018,0.001l0,0l0,0
			L266.798,188.574"/>
		<path clip-path="url(#SVGID_2_)" fill="#261F24" d="M253.457,186.824c0.196,0.04,0.392,0.079,0.584,0.117l0.015,0.002
			c-0.145-0.031-0.289-0.063-0.436-0.096C253.566,186.84,253.511,186.832,253.457,186.824"/>
		<path clip-path="url(#SVGID_2_)" fill="#1C181D" d="M254.041,186.941c0.021,0.004,0.036,0.008,0.056,0.012
			c-0.014-0.004-0.027-0.006-0.041-0.01L254.041,186.941"/>
		<path clip-path="url(#SVGID_2_)" fill="#201B1F" d="M223.688,176.538c10.826,5.597,21.663,8.643,29.77,10.286
			c0.054,0.008,0.109,0.016,0.163,0.023c-6.192-1.386-13.925-3.806-21.756-8.026L223.688,176.538"/>
		<path clip-path="url(#SVGID_2_)" fill="#1D191D" d="M254.097,186.953c3.445,0.751,6.39,1.18,8.577,1.425
			c0.18,0.009,0.354,0.019,0.523,0.026c0.128,0.006,0.253,0.013,0.375,0.019C261.337,188.178,258.064,187.735,254.097,186.953"/>
		<path clip-path="url(#SVGID_2_)" fill="#442932" d="M266.758,188.563l0.006,0.014c0.015,0.001,0.026,0.002,0.034,0.002v-0.004
			L266.758,188.563"/>
		<path clip-path="url(#SVGID_2_)" fill="#3A272B" d="M266.686,188.543l0.025,0.031c0.021,0.001,0.038,0.002,0.053,0.002
			l-0.006-0.014L266.686,188.543"/>
		<path clip-path="url(#SVGID_2_)" fill="#2F2226" d="M266.551,188.505l0.087,0.065c0.027,0.001,0.052,0.002,0.073,0.004
			l-0.025-0.031L266.551,188.505"/>
		<path clip-path="url(#SVGID_2_)" fill="#231D21" d="M253.62,186.848c0.146,0.032,0.291,0.064,0.436,0.096l11.357,1.567
			c0.188,0.009,0.359,0.018,0.512,0.024C263.468,188.11,259.165,187.619,253.62,186.848"/>
		<path clip-path="url(#SVGID_2_)" fill="#1A161A" d="M254.056,186.943c0.014,0.004,0.027,0.006,0.041,0.01
			c3.968,0.782,7.24,1.225,9.476,1.47c0.72,0.034,1.34,0.063,1.841,0.088L254.056,186.943"/>
		<path clip-path="url(#SVGID_2_)" fill="#251D21" d="M266.162,188.396l0.357,0.168c0.044,0.002,0.084,0.004,0.118,0.006
			l-0.087-0.065L266.162,188.396"/>
		<path clip-path="url(#SVGID_2_)" fill="#1D181C" d="M231.864,178.821c7.831,4.221,15.563,6.641,21.756,8.026
			c5.545,0.771,9.848,1.263,12.305,1.688c0.248,0.012,0.447,0.021,0.595,0.029l-0.357-0.168L231.864,178.821"/>
	</g>
</g>
<g>
	<g>
		<path fill="#12143C" d="M22.4,194.391v12.588h6.999c1.815,0,3.029-0.273,3.64-0.821c0.814-0.72,1.269-1.988,1.363-3.805h0.868
			v11.085h-0.868c-0.221-1.55-0.439-2.544-0.658-2.982c-0.281-0.548-0.744-0.979-1.386-1.292s-1.628-0.47-2.959-0.47H22.4v10.498
			c0,1.409,0.063,2.266,0.188,2.572c0.125,0.305,0.344,0.547,0.657,0.728c0.313,0.181,0.908,0.271,1.785,0.271h5.401
			c1.8,0,3.108-0.125,3.922-0.377c0.813-0.25,1.597-0.742,2.349-1.479c0.971-0.971,1.965-2.436,2.982-4.393h0.939l-2.748,7.985
			H13.336v-0.869h1.127c0.752,0,1.464-0.18,2.137-0.54c0.501-0.25,0.842-0.626,1.021-1.127s0.271-1.527,0.271-3.076v-20.691
			c0-2.02-0.204-3.264-0.61-3.734c-0.564-0.625-1.504-0.939-2.818-0.939h-1.127v-0.868h24.541l0.353,6.976h-0.915
			c-0.33-1.676-0.693-2.826-1.093-3.453c-0.399-0.626-0.99-1.104-1.772-1.433c-0.627-0.235-1.73-0.353-3.313-0.353H22.4z"/>
		<path fill="#12143C" d="M49.502,206.908c2.521-3.037,4.924-4.556,7.211-4.556c1.174,0,2.184,0.294,3.029,0.881
			s1.519,1.554,2.02,2.9c0.344,0.939,0.517,2.38,0.517,4.321v9.183c0,1.362,0.109,2.286,0.329,2.771
			c0.172,0.393,0.449,0.697,0.834,0.916c0.383,0.221,1.092,0.329,2.125,0.329v0.846H54.928v-0.846h0.446
			c1.001,0,1.702-0.152,2.102-0.458c0.399-0.305,0.677-0.755,0.834-1.35c0.063-0.235,0.094-0.971,0.094-2.208v-8.808
			c0-1.957-0.255-3.377-0.763-4.262c-0.51-0.885-1.367-1.327-2.572-1.327c-1.863,0-3.719,1.019-5.566,3.054v11.343
			c0,1.456,0.086,2.356,0.259,2.7c0.22,0.455,0.521,0.787,0.904,0.998c0.384,0.212,1.163,0.317,2.337,0.317v0.846H42.363v-0.846
			h0.47c1.096,0,1.835-0.277,2.22-0.833c0.383-0.557,0.574-1.617,0.574-3.183v-7.985c0-2.583-0.059-4.156-0.176-4.721
			c-0.117-0.563-0.297-0.947-0.54-1.15s-0.567-0.305-0.975-0.305c-0.438,0-0.963,0.117-1.573,0.352l-0.353-0.846l6.481-2.63h1.01
			V206.908z"/>
		<path fill="#12143C" d="M73.035,216.654c-1.315-0.641-2.326-1.537-3.029-2.688c-0.705-1.151-1.058-2.423-1.058-3.816
			c0-2.129,0.802-3.961,2.407-5.495c1.605-1.535,3.66-2.302,6.165-2.302c2.051,0,3.828,0.501,5.331,1.503h4.557
			c0.672,0,1.064,0.02,1.174,0.059s0.188,0.105,0.234,0.199c0.094,0.142,0.141,0.393,0.141,0.752c0,0.408-0.039,0.689-0.117,0.846
			c-0.047,0.078-0.129,0.141-0.246,0.188s-0.514,0.07-1.186,0.07h-2.795c0.877,1.128,1.314,2.568,1.314,4.322
			c0,2.004-0.768,3.719-2.301,5.143c-1.535,1.426-3.594,2.137-6.178,2.137c-1.064,0-2.152-0.156-3.264-0.469
			c-0.689,0.595-1.154,1.115-1.397,1.562s-0.364,0.825-0.364,1.139c0,0.267,0.129,0.524,0.388,0.775s0.763,0.431,1.515,0.54
			c0.438,0.063,1.535,0.117,3.288,0.164c3.226,0.078,5.315,0.188,6.271,0.329c1.456,0.204,2.619,0.743,3.488,1.62
			c0.868,0.877,1.303,1.957,1.303,3.241c0,1.769-0.83,3.429-2.489,4.979c-2.442,2.285-5.629,3.429-9.559,3.429
			c-3.022,0-5.574-0.682-7.656-2.044c-1.175-0.783-1.761-1.597-1.761-2.442c0-0.376,0.086-0.751,0.258-1.127
			c0.266-0.579,0.814-1.386,1.645-2.419c0.109-0.141,0.907-0.986,2.395-2.537c-0.814-0.484-1.389-0.919-1.726-1.303
			s-0.505-0.818-0.505-1.304c0-0.548,0.223-1.189,0.669-1.926C70.393,219.043,71.422,218.002,73.035,216.654z M72.8,224.499
			c-0.735,0.798-1.292,1.542-1.667,2.231c-0.376,0.688-0.564,1.322-0.564,1.902c0,0.751,0.455,1.408,1.363,1.973
			c1.564,0.971,3.827,1.455,6.787,1.455c2.817,0,4.896-0.496,6.234-1.49c1.339-0.994,2.008-2.055,2.008-3.183
			c0-0.814-0.398-1.394-1.197-1.737c-0.814-0.346-2.428-0.549-4.838-0.611C77.402,224.945,74.694,224.766,72.8,224.499z
			 M77.121,203.48c-1.158,0-2.129,0.461-2.912,1.385s-1.174,2.341-1.174,4.251c0,2.474,0.531,4.392,1.597,5.754
			c0.813,1.033,1.847,1.55,3.101,1.55c1.189,0,2.168-0.445,2.936-1.338c0.766-0.893,1.15-2.294,1.15-4.205
			c0-2.488-0.541-4.438-1.621-5.848C79.399,203.996,78.373,203.48,77.121,203.48z"/>
		<path fill="#12143C" d="M98.728,191.104v28.534c0,1.347,0.098,2.239,0.294,2.677c0.195,0.439,0.496,0.771,0.904,0.998
			c0.406,0.228,1.166,0.341,2.277,0.341v0.846H91.658v-0.846c0.986,0,1.66-0.102,2.02-0.306c0.36-0.203,0.643-0.539,0.846-1.01
			c0.203-0.469,0.306-1.369,0.306-2.7v-19.54c0-2.426-0.056-3.918-0.165-4.474s-0.285-0.936-0.527-1.14
			c-0.244-0.203-0.553-0.305-0.928-0.305c-0.408,0-0.924,0.125-1.551,0.376l-0.398-0.822l6.411-2.63H98.728z"/>
		<path fill="#12143C" d="M112.113,202.353v17.285c0,1.347,0.098,2.243,0.294,2.688c0.196,0.447,0.485,0.779,0.869,0.998
			c0.384,0.221,1.084,0.329,2.103,0.329v0.846h-10.451v-0.846c1.049,0,1.753-0.102,2.113-0.306c0.359-0.203,0.646-0.539,0.857-1.01
			c0.211-0.469,0.316-1.369,0.316-2.7v-8.29c0-2.333-0.07-3.844-0.211-4.533c-0.109-0.5-0.281-0.849-0.517-1.045
			c-0.235-0.195-0.556-0.293-0.963-0.293c-0.438,0-0.972,0.117-1.597,0.352l-0.329-0.846l6.481-2.63H112.113z M110.164,191.104
			c0.658,0,1.218,0.23,1.68,0.692c0.461,0.462,0.693,1.021,0.693,1.679c0,0.658-0.232,1.222-0.693,1.691
			c-0.462,0.47-1.021,0.705-1.68,0.705c-0.657,0-1.221-0.235-1.69-0.705s-0.704-1.033-0.704-1.691c0-0.657,0.23-1.217,0.692-1.679
			S109.491,191.104,110.164,191.104z"/>
		<path fill="#12143C" d="M131.959,202.353v7.327h-0.775c-0.595-2.301-1.357-3.867-2.289-4.697
			c-0.932-0.829-2.118-1.244-3.559-1.244c-1.096,0-1.98,0.29-2.654,0.869c-0.673,0.579-1.01,1.221-1.01,1.926
			c0,0.877,0.251,1.629,0.752,2.254c0.485,0.643,1.472,1.324,2.959,2.043l3.43,1.668c3.178,1.551,4.768,3.594,4.768,6.13
			c0,1.957-0.74,3.534-2.221,4.731c-1.479,1.198-3.135,1.797-4.967,1.797c-1.314,0-2.818-0.234-4.509-0.704
			c-0.517-0.156-0.939-0.235-1.269-0.235c-0.359,0-0.642,0.204-0.846,0.611h-0.774v-7.68h0.774c0.439,2.191,1.276,3.844,2.514,4.955
			c1.236,1.111,2.622,1.668,4.156,1.668c1.081,0,1.961-0.317,2.643-0.951c0.682-0.635,1.021-1.398,1.021-2.29
			c0-1.081-0.38-1.988-1.139-2.725c-0.76-0.735-2.274-1.667-4.545-2.794c-2.27-1.128-3.758-2.146-4.462-3.054
			c-0.704-0.893-1.057-2.02-1.057-3.382c0-1.77,0.606-3.248,1.819-4.439c1.214-1.189,2.783-1.784,4.709-1.784
			c0.846,0,1.871,0.181,3.077,0.54c0.798,0.234,1.331,0.353,1.597,0.353c0.25,0,0.446-0.055,0.588-0.165
			c0.141-0.109,0.305-0.352,0.492-0.728H131.959z"/>
		<path fill="#12143C" d="M143.09,191.104v15.734c1.738-1.91,3.116-3.135,4.135-3.676c1.018-0.539,2.035-0.81,3.053-0.81
			c1.221,0,2.27,0.337,3.146,1.01s1.527,1.73,1.949,3.171c0.297,1.002,0.446,2.834,0.446,5.495v7.609
			c0,1.362,0.109,2.294,0.329,2.794c0.156,0.377,0.422,0.674,0.799,0.893c0.375,0.221,1.064,0.329,2.066,0.329v0.846h-10.568v-0.846
			h0.493c1.001,0,1.698-0.152,2.09-0.458c0.392-0.305,0.665-0.755,0.822-1.35c0.047-0.251,0.07-0.986,0.07-2.208v-7.609
			c0-2.349-0.122-3.89-0.364-4.626s-0.631-1.288-1.162-1.656c-0.533-0.367-1.174-0.552-1.926-0.552c-0.768,0-1.566,0.204-2.396,0.61
			c-0.83,0.408-1.824,1.229-2.983,2.467v11.366c0,1.472,0.083,2.388,0.247,2.747c0.165,0.361,0.47,0.662,0.916,0.904
			c0.446,0.243,1.218,0.364,2.313,0.364v0.846h-10.662v-0.846c0.955,0,1.706-0.148,2.254-0.446c0.313-0.156,0.564-0.453,0.752-0.893
			c0.188-0.438,0.281-1.33,0.281-2.677v-19.47c0-2.457-0.059-3.969-0.176-4.532s-0.297-0.947-0.54-1.151
			c-0.243-0.203-0.567-0.305-0.975-0.305c-0.329,0-0.861,0.125-1.597,0.376l-0.329-0.822l6.435-2.63H143.09z"/>
		<path fill="#12143C" d="M193.349,213.837H181.02l-2.161,5.026c-0.532,1.236-0.798,2.16-0.798,2.771c0,0.485,0.23,0.912,0.692,1.28
			c0.462,0.367,1.46,0.606,2.994,0.716v0.869h-10.028v-0.869c1.331-0.235,2.191-0.54,2.584-0.915
			c0.799-0.752,1.683-2.279,2.653-4.58l11.202-26.209h0.822l11.085,26.49c0.893,2.13,1.702,3.512,2.431,4.146
			s1.742,0.99,3.041,1.068v0.869h-12.564v-0.869c1.269-0.062,2.126-0.273,2.572-0.634c0.445-0.359,0.669-0.799,0.669-1.315
			c0-0.688-0.313-1.776-0.939-3.265L193.349,213.837z M192.691,212.1l-5.402-12.871l-5.542,12.871H192.691z"/>
		<path fill="#12143C" d="M225.852,216.326c-0.579,2.834-1.714,5.014-3.404,6.541c-1.691,1.526-3.563,2.289-5.613,2.289
			c-2.442,0-4.572-1.025-6.389-3.076s-2.724-4.822-2.724-8.314c0-3.381,1.006-6.129,3.018-8.242
			c2.012-2.114,4.427-3.171,7.245-3.171c2.113,0,3.852,0.56,5.214,1.679c1.362,1.12,2.044,2.283,2.044,3.488
			c0,0.595-0.192,1.076-0.576,1.444s-0.92,0.552-1.609,0.552c-0.924,0-1.619-0.297-2.09-0.893c-0.266-0.328-0.442-0.955-0.527-1.879
			c-0.087-0.924-0.404-1.628-0.951-2.113c-0.549-0.47-1.309-0.705-2.279-0.705c-1.565,0-2.826,0.58-3.78,1.738
			c-1.269,1.535-1.902,3.563-1.902,6.082c0,2.568,0.63,4.835,1.89,6.799c1.261,1.966,2.963,2.948,5.109,2.948
			c1.533,0,2.912-0.524,4.133-1.573c0.861-0.721,1.699-2.027,2.513-3.922L225.852,216.326z"/>
		<path fill="#12143C" d="M241.117,221.398c-2.207,1.707-3.593,2.693-4.156,2.959c-0.846,0.393-1.746,0.588-2.701,0.588
			c-1.487,0-2.713-0.509-3.676-1.526s-1.443-2.356-1.443-4.017c0-1.049,0.234-1.957,0.704-2.724
			c0.642-1.065,1.757-2.067,3.347-3.007c1.589-0.939,4.23-2.082,7.926-3.428v-0.846c0-2.145-0.34-3.617-1.021-4.416
			c-0.681-0.798-1.672-1.197-2.971-1.197c-0.986,0-1.77,0.267-2.348,0.799c-0.596,0.532-0.893,1.143-0.893,1.832l0.047,1.361
			c0,0.721-0.185,1.276-0.553,1.668c-0.367,0.391-0.85,0.587-1.443,0.587c-0.58,0-1.054-0.203-1.422-0.61
			c-0.367-0.407-0.551-0.963-0.551-1.668c0-1.346,0.688-2.583,2.066-3.711c1.377-1.127,3.311-1.69,5.801-1.69
			c1.91,0,3.476,0.321,4.697,0.963c0.923,0.485,1.604,1.245,2.043,2.278c0.281,0.674,0.422,2.051,0.422,4.133v7.305
			c0,2.051,0.039,3.307,0.117,3.77c0.078,0.461,0.208,0.771,0.389,0.927c0.18,0.157,0.387,0.235,0.622,0.235
			c0.25,0,0.47-0.055,0.657-0.164c0.329-0.204,0.963-0.775,1.902-1.715v1.314c-1.754,2.35-3.429,3.523-5.025,3.523
			c-0.768,0-1.379-0.267-1.832-0.799C241.367,223.592,241.133,222.684,241.117,221.398z M241.117,219.873v-8.197
			c-2.363,0.939-3.891,1.605-4.579,1.996c-1.237,0.689-2.122,1.41-2.653,2.161c-0.533,0.751-0.799,1.573-0.799,2.466
			c0,1.127,0.336,2.063,1.01,2.807c0.673,0.744,1.447,1.115,2.324,1.115C237.61,222.221,239.176,221.438,241.117,219.873z"/>
		<path fill="#12143C" d="M265.471,222.08c-1.049,1.096-2.074,1.883-3.076,2.36s-2.082,0.716-3.24,0.716
			c-2.35,0-4.4-0.982-6.153-2.947c-1.754-1.965-2.63-4.489-2.63-7.574c0-3.084,0.97-5.906,2.912-8.466
			c1.94-2.56,4.438-3.84,7.491-3.84c1.894,0,3.46,0.603,4.696,1.808v-3.969c0-2.457-0.059-3.969-0.176-4.532
			s-0.301-0.947-0.552-1.151c-0.251-0.203-0.563-0.305-0.939-0.305c-0.407,0-0.947,0.125-1.62,0.376l-0.306-0.822l6.411-2.63h1.057
			v24.871c0,2.521,0.06,4.059,0.177,4.614c0.118,0.556,0.306,0.943,0.563,1.163c0.259,0.219,0.561,0.328,0.904,0.328
			c0.423,0,0.986-0.133,1.691-0.399l0.258,0.822l-6.388,2.653h-1.081V222.08z M265.471,220.436v-11.084
			c-0.094-1.064-0.375-2.035-0.845-2.912s-1.093-1.539-1.867-1.984c-0.774-0.447-1.53-0.67-2.267-0.67
			c-1.377,0-2.606,0.619-3.688,1.855c-1.424,1.629-2.137,4.008-2.137,7.139c0,3.164,0.689,5.586,2.066,7.27
			c1.378,1.684,2.912,2.524,4.604,2.524C262.763,222.573,264.141,221.861,265.471,220.436z"/>
		<path fill="#12143C" d="M277.943,211.089c-0.018,3.194,0.758,5.699,2.324,7.516c1.564,1.816,3.406,2.724,5.52,2.724
			c1.408,0,2.633-0.387,3.676-1.162c1.041-0.775,1.914-2.102,2.617-3.98l0.729,0.469c-0.328,2.146-1.283,4.099-2.865,5.86
			c-1.582,1.761-3.563,2.642-5.941,2.642c-2.584,0-4.795-1.006-6.635-3.018s-2.76-4.717-2.76-8.113c0-3.68,0.943-6.549,2.83-8.607
			s4.254-3.089,7.104-3.089c2.412,0,4.393,0.795,5.943,2.384c1.549,1.59,2.324,3.715,2.324,6.376H277.943z M277.943,209.727h9.957
			c-0.078-1.377-0.242-2.348-0.494-2.912c-0.391-0.877-0.975-1.564-1.748-2.066c-0.775-0.501-1.586-0.752-2.432-0.752
			c-1.299,0-2.463,0.506-3.488,1.516S278.115,207.927,277.943,209.727z"/>
		<path fill="#12143C" d="M302.061,206.932c1.566-1.564,2.49-2.465,2.771-2.7c0.705-0.595,1.465-1.058,2.279-1.386
			c0.813-0.328,1.619-0.493,2.418-0.493c1.348,0,2.506,0.392,3.477,1.175s1.619,1.918,1.949,3.404
			c1.611-1.879,2.975-3.111,4.086-3.698s2.254-0.881,3.43-0.881c1.143,0,2.156,0.294,3.041,0.881s1.584,1.546,2.102,2.877
			c0.344,0.908,0.516,2.333,0.516,4.274v9.253c0,1.347,0.104,2.271,0.307,2.771c0.156,0.346,0.445,0.639,0.869,0.881
			c0.422,0.243,1.111,0.364,2.066,0.364v0.846h-10.615v-0.846h0.445c0.924,0,1.645-0.18,2.162-0.54
			c0.359-0.25,0.617-0.649,0.773-1.197c0.063-0.267,0.094-1.025,0.094-2.278v-9.253c0-1.754-0.211-2.99-0.633-3.711
			c-0.611-1.002-1.59-1.503-2.936-1.503c-0.83,0-1.664,0.208-2.502,0.622c-0.838,0.415-1.852,1.186-3.041,2.313l-0.047,0.259
			l0.047,1.01v10.263c0,1.472,0.082,2.388,0.246,2.747c0.164,0.361,0.475,0.662,0.928,0.904c0.455,0.243,1.229,0.364,2.326,0.364
			v0.846h-10.875v-0.846c1.189,0,2.008-0.141,2.455-0.423c0.445-0.281,0.756-0.704,0.928-1.268c0.078-0.266,0.117-1.041,0.117-2.325
			v-9.253c0-1.754-0.258-3.014-0.775-3.781c-0.689-1.002-1.652-1.504-2.889-1.504c-0.846,0-1.684,0.229-2.512,0.682
			c-1.301,0.689-2.303,1.465-3.008,2.325v11.531c0,1.409,0.098,2.325,0.295,2.747c0.195,0.424,0.484,0.74,0.869,0.951
			c0.383,0.212,1.162,0.317,2.336,0.317v0.846h-10.639v-0.846c0.986,0,1.676-0.105,2.066-0.317c0.391-0.211,0.689-0.547,0.893-1.01
			c0.203-0.461,0.305-1.357,0.305-2.688v-8.22c0-2.364-0.07-3.891-0.211-4.58c-0.109-0.516-0.281-0.872-0.516-1.068
			c-0.236-0.195-0.557-0.293-0.963-0.293c-0.439,0-0.963,0.117-1.574,0.352l-0.352-0.846l6.48-2.63h1.01V206.932z"/>
		<path fill="#12143C" d="M331.865,202.986h10.027v0.869h-0.494c-0.703,0-1.232,0.152-1.584,0.458
			c-0.354,0.306-0.529,0.685-0.529,1.14c0,0.609,0.26,1.455,0.775,2.535l5.236,10.852l4.814-11.885c0.268-0.641,0.4-1.275,0.4-1.902
			c0-0.281-0.055-0.492-0.164-0.633c-0.127-0.173-0.322-0.31-0.588-0.412c-0.266-0.102-0.736-0.152-1.408-0.152v-0.869h6.998v0.869
			c-0.58,0.063-1.025,0.188-1.338,0.376c-0.314,0.188-0.658,0.54-1.035,1.057c-0.141,0.22-0.406,0.822-0.797,1.809l-8.76,21.466
			c-0.846,2.082-1.955,3.655-3.324,4.72c-1.369,1.065-2.689,1.598-3.957,1.598c-0.924,0-1.684-0.267-2.277-0.799
			c-0.596-0.532-0.893-1.144-0.893-1.832c0-0.657,0.215-1.187,0.645-1.585c0.432-0.399,1.021-0.6,1.773-0.6
			c0.518,0,1.221,0.173,2.113,0.518c0.627,0.234,1.018,0.352,1.176,0.352c0.469,0,0.982-0.242,1.537-0.728
			c0.557-0.485,1.115-1.425,1.68-2.818l1.527-3.734l-7.727-16.228c-0.236-0.485-0.611-1.088-1.129-1.809
			c-0.391-0.548-0.713-0.916-0.963-1.104c-0.359-0.251-0.939-0.471-1.736-0.658V202.986z"/>
	</g>
	<g>
		<path fill="#12143C" d="M22.4,194.391v12.588h6.999c1.815,0,3.029-0.273,3.64-0.821c0.814-0.72,1.269-1.988,1.363-3.805h0.868
			v11.085h-0.868c-0.221-1.55-0.439-2.544-0.658-2.982c-0.281-0.548-0.744-0.979-1.386-1.292s-1.628-0.47-2.959-0.47H22.4v10.498
			c0,1.409,0.063,2.266,0.188,2.572c0.125,0.305,0.344,0.547,0.657,0.728c0.313,0.181,0.908,0.271,1.785,0.271h5.401
			c1.8,0,3.108-0.125,3.922-0.377c0.813-0.25,1.597-0.742,2.349-1.479c0.971-0.971,1.965-2.436,2.982-4.393h0.939l-2.748,7.985
			H13.336v-0.869h1.127c0.752,0,1.464-0.18,2.137-0.54c0.501-0.25,0.842-0.626,1.021-1.127s0.271-1.527,0.271-3.076v-20.691
			c0-2.02-0.204-3.264-0.61-3.734c-0.564-0.625-1.504-0.939-2.818-0.939h-1.127v-0.868h24.541l0.353,6.976h-0.915
			c-0.33-1.676-0.693-2.826-1.093-3.453c-0.399-0.626-0.99-1.104-1.772-1.433c-0.627-0.235-1.73-0.353-3.313-0.353H22.4z"/>
		<path fill="#12143C" d="M49.502,206.908c2.521-3.037,4.924-4.556,7.211-4.556c1.174,0,2.184,0.294,3.029,0.881
			s1.519,1.554,2.02,2.9c0.344,0.939,0.517,2.38,0.517,4.321v9.183c0,1.362,0.109,2.286,0.329,2.771
			c0.172,0.393,0.449,0.697,0.834,0.916c0.383,0.221,1.092,0.329,2.125,0.329v0.846H54.928v-0.846h0.446
			c1.001,0,1.702-0.152,2.102-0.458c0.399-0.305,0.677-0.755,0.834-1.35c0.063-0.235,0.094-0.971,0.094-2.208v-8.808
			c0-1.957-0.255-3.377-0.763-4.262c-0.51-0.885-1.367-1.327-2.572-1.327c-1.863,0-3.719,1.019-5.566,3.054v11.343
			c0,1.456,0.086,2.356,0.259,2.7c0.22,0.455,0.521,0.787,0.904,0.998c0.384,0.212,1.163,0.317,2.337,0.317v0.846H42.363v-0.846
			h0.47c1.096,0,1.835-0.277,2.22-0.833c0.383-0.557,0.574-1.617,0.574-3.183v-7.985c0-2.583-0.059-4.156-0.176-4.721
			c-0.117-0.563-0.297-0.947-0.54-1.15s-0.567-0.305-0.975-0.305c-0.438,0-0.963,0.117-1.573,0.352l-0.353-0.846l6.481-2.63h1.01
			V206.908z"/>
		<path fill="#12143C" d="M73.035,216.654c-1.315-0.641-2.326-1.537-3.029-2.688c-0.705-1.151-1.058-2.423-1.058-3.816
			c0-2.129,0.802-3.961,2.407-5.495c1.605-1.535,3.66-2.302,6.165-2.302c2.051,0,3.828,0.501,5.331,1.503h4.557
			c0.672,0,1.064,0.02,1.174,0.059s0.188,0.105,0.234,0.199c0.094,0.142,0.141,0.393,0.141,0.752c0,0.408-0.039,0.689-0.117,0.846
			c-0.047,0.078-0.129,0.141-0.246,0.188s-0.514,0.07-1.186,0.07h-2.795c0.877,1.128,1.314,2.568,1.314,4.322
			c0,2.004-0.768,3.719-2.301,5.143c-1.535,1.426-3.594,2.137-6.178,2.137c-1.064,0-2.152-0.156-3.264-0.469
			c-0.689,0.595-1.154,1.115-1.397,1.562s-0.364,0.825-0.364,1.139c0,0.267,0.129,0.524,0.388,0.775s0.763,0.431,1.515,0.54
			c0.438,0.063,1.535,0.117,3.288,0.164c3.226,0.078,5.315,0.188,6.271,0.329c1.456,0.204,2.619,0.743,3.488,1.62
			c0.868,0.877,1.303,1.957,1.303,3.241c0,1.769-0.83,3.429-2.489,4.979c-2.442,2.285-5.629,3.429-9.559,3.429
			c-3.022,0-5.574-0.682-7.656-2.044c-1.175-0.783-1.761-1.597-1.761-2.442c0-0.376,0.086-0.751,0.258-1.127
			c0.266-0.579,0.814-1.386,1.645-2.419c0.109-0.141,0.907-0.986,2.395-2.537c-0.814-0.484-1.389-0.919-1.726-1.303
			s-0.505-0.818-0.505-1.304c0-0.548,0.223-1.189,0.669-1.926C70.393,219.043,71.422,218.002,73.035,216.654z M72.8,224.499
			c-0.735,0.798-1.292,1.542-1.667,2.231c-0.376,0.688-0.564,1.322-0.564,1.902c0,0.751,0.455,1.408,1.363,1.973
			c1.564,0.971,3.827,1.455,6.787,1.455c2.817,0,4.896-0.496,6.234-1.49c1.339-0.994,2.008-2.055,2.008-3.183
			c0-0.814-0.398-1.394-1.197-1.737c-0.814-0.346-2.428-0.549-4.838-0.611C77.402,224.945,74.694,224.766,72.8,224.499z
			 M77.121,203.48c-1.158,0-2.129,0.461-2.912,1.385s-1.174,2.341-1.174,4.251c0,2.474,0.531,4.392,1.597,5.754
			c0.813,1.033,1.847,1.55,3.101,1.55c1.189,0,2.168-0.445,2.936-1.338c0.766-0.893,1.15-2.294,1.15-4.205
			c0-2.488-0.541-4.438-1.621-5.848C79.399,203.996,78.373,203.48,77.121,203.48z"/>
		<path fill="#12143C" d="M98.728,191.104v28.534c0,1.347,0.098,2.239,0.294,2.677c0.195,0.439,0.496,0.771,0.904,0.998
			c0.406,0.228,1.166,0.341,2.277,0.341v0.846H91.658v-0.846c0.986,0,1.66-0.102,2.02-0.306c0.36-0.203,0.643-0.539,0.846-1.01
			c0.203-0.469,0.306-1.369,0.306-2.7v-19.54c0-2.426-0.056-3.918-0.165-4.474s-0.285-0.936-0.527-1.14
			c-0.244-0.203-0.553-0.305-0.928-0.305c-0.408,0-0.924,0.125-1.551,0.376l-0.398-0.822l6.411-2.63H98.728z"/>
		<path fill="#12143C" d="M112.113,202.353v17.285c0,1.347,0.098,2.243,0.294,2.688c0.196,0.447,0.485,0.779,0.869,0.998
			c0.384,0.221,1.084,0.329,2.103,0.329v0.846h-10.451v-0.846c1.049,0,1.753-0.102,2.113-0.306c0.359-0.203,0.646-0.539,0.857-1.01
			c0.211-0.469,0.316-1.369,0.316-2.7v-8.29c0-2.333-0.07-3.844-0.211-4.533c-0.109-0.5-0.281-0.849-0.517-1.045
			c-0.235-0.195-0.556-0.293-0.963-0.293c-0.438,0-0.972,0.117-1.597,0.352l-0.329-0.846l6.481-2.63H112.113z M110.164,191.104
			c0.658,0,1.218,0.23,1.68,0.692c0.461,0.462,0.693,1.021,0.693,1.679c0,0.658-0.232,1.222-0.693,1.691
			c-0.462,0.47-1.021,0.705-1.68,0.705c-0.657,0-1.221-0.235-1.69-0.705s-0.704-1.033-0.704-1.691c0-0.657,0.23-1.217,0.692-1.679
			S109.491,191.104,110.164,191.104z"/>
		<path fill="#12143C" d="M131.959,202.353v7.327h-0.775c-0.595-2.301-1.357-3.867-2.289-4.697
			c-0.932-0.829-2.118-1.244-3.559-1.244c-1.096,0-1.98,0.29-2.654,0.869c-0.673,0.579-1.01,1.221-1.01,1.926
			c0,0.877,0.251,1.629,0.752,2.254c0.485,0.643,1.472,1.324,2.959,2.043l3.43,1.668c3.178,1.551,4.768,3.594,4.768,6.13
			c0,1.957-0.74,3.534-2.221,4.731c-1.479,1.198-3.135,1.797-4.967,1.797c-1.314,0-2.818-0.234-4.509-0.704
			c-0.517-0.156-0.939-0.235-1.269-0.235c-0.359,0-0.642,0.204-0.846,0.611h-0.774v-7.68h0.774c0.439,2.191,1.276,3.844,2.514,4.955
			c1.236,1.111,2.622,1.668,4.156,1.668c1.081,0,1.961-0.317,2.643-0.951c0.682-0.635,1.021-1.398,1.021-2.29
			c0-1.081-0.38-1.988-1.139-2.725c-0.76-0.735-2.274-1.667-4.545-2.794c-2.27-1.128-3.758-2.146-4.462-3.054
			c-0.704-0.893-1.057-2.02-1.057-3.382c0-1.77,0.606-3.248,1.819-4.439c1.214-1.189,2.783-1.784,4.709-1.784
			c0.846,0,1.871,0.181,3.077,0.54c0.798,0.234,1.331,0.353,1.597,0.353c0.25,0,0.446-0.055,0.588-0.165
			c0.141-0.109,0.305-0.352,0.492-0.728H131.959z"/>
		<path fill="#12143C" d="M143.09,191.104v15.734c1.738-1.91,3.116-3.135,4.135-3.676c1.018-0.539,2.035-0.81,3.053-0.81
			c1.221,0,2.27,0.337,3.146,1.01s1.527,1.73,1.949,3.171c0.297,1.002,0.446,2.834,0.446,5.495v7.609
			c0,1.362,0.109,2.294,0.329,2.794c0.156,0.377,0.422,0.674,0.799,0.893c0.375,0.221,1.064,0.329,2.066,0.329v0.846h-10.568v-0.846
			h0.493c1.001,0,1.698-0.152,2.09-0.458c0.392-0.305,0.665-0.755,0.822-1.35c0.047-0.251,0.07-0.986,0.07-2.208v-7.609
			c0-2.349-0.122-3.89-0.364-4.626s-0.631-1.288-1.162-1.656c-0.533-0.367-1.174-0.552-1.926-0.552c-0.768,0-1.566,0.204-2.396,0.61
			c-0.83,0.408-1.824,1.229-2.983,2.467v11.366c0,1.472,0.083,2.388,0.247,2.747c0.165,0.361,0.47,0.662,0.916,0.904
			c0.446,0.243,1.218,0.364,2.313,0.364v0.846h-10.662v-0.846c0.955,0,1.706-0.148,2.254-0.446c0.313-0.156,0.564-0.453,0.752-0.893
			c0.188-0.438,0.281-1.33,0.281-2.677v-19.47c0-2.457-0.059-3.969-0.176-4.532s-0.297-0.947-0.54-1.151
			c-0.243-0.203-0.567-0.305-0.975-0.305c-0.329,0-0.861,0.125-1.597,0.376l-0.329-0.822l6.435-2.63H143.09z"/>
		<path fill="#12143C" d="M193.349,213.837H181.02l-2.161,5.026c-0.532,1.236-0.798,2.16-0.798,2.771c0,0.485,0.23,0.912,0.692,1.28
			c0.462,0.367,1.46,0.606,2.994,0.716v0.869h-10.028v-0.869c1.331-0.235,2.191-0.54,2.584-0.915
			c0.799-0.752,1.683-2.279,2.653-4.58l11.202-26.209h0.822l11.085,26.49c0.893,2.13,1.702,3.512,2.431,4.146
			s1.742,0.99,3.041,1.068v0.869h-12.564v-0.869c1.269-0.062,2.126-0.273,2.572-0.634c0.445-0.359,0.669-0.799,0.669-1.315
			c0-0.688-0.313-1.776-0.939-3.265L193.349,213.837z M192.691,212.1l-5.402-12.871l-5.542,12.871H192.691z"/>
		<path fill="#12143C" d="M225.852,216.326c-0.579,2.834-1.714,5.014-3.404,6.541c-1.691,1.526-3.563,2.289-5.613,2.289
			c-2.442,0-4.572-1.025-6.389-3.076s-2.724-4.822-2.724-8.314c0-3.381,1.006-6.129,3.018-8.242
			c2.012-2.114,4.427-3.171,7.245-3.171c2.113,0,3.852,0.56,5.214,1.679c1.362,1.12,2.044,2.283,2.044,3.488
			c0,0.595-0.192,1.076-0.576,1.444s-0.92,0.552-1.609,0.552c-0.924,0-1.619-0.297-2.09-0.893c-0.266-0.328-0.442-0.955-0.527-1.879
			c-0.087-0.924-0.404-1.628-0.951-2.113c-0.549-0.47-1.309-0.705-2.279-0.705c-1.565,0-2.826,0.58-3.78,1.738
			c-1.269,1.535-1.902,3.563-1.902,6.082c0,2.568,0.63,4.835,1.89,6.799c1.261,1.966,2.963,2.948,5.109,2.948
			c1.533,0,2.912-0.524,4.133-1.573c0.861-0.721,1.699-2.027,2.513-3.922L225.852,216.326z"/>
		<path fill="#12143C" d="M241.117,221.398c-2.207,1.707-3.593,2.693-4.156,2.959c-0.846,0.393-1.746,0.588-2.701,0.588
			c-1.487,0-2.713-0.509-3.676-1.526s-1.443-2.356-1.443-4.017c0-1.049,0.234-1.957,0.704-2.724
			c0.642-1.065,1.757-2.067,3.347-3.007c1.589-0.939,4.23-2.082,7.926-3.428v-0.846c0-2.145-0.34-3.617-1.021-4.416
			c-0.681-0.798-1.672-1.197-2.971-1.197c-0.986,0-1.77,0.267-2.348,0.799c-0.596,0.532-0.893,1.143-0.893,1.832l0.047,1.361
			c0,0.721-0.185,1.276-0.553,1.668c-0.367,0.391-0.85,0.587-1.443,0.587c-0.58,0-1.054-0.203-1.422-0.61
			c-0.367-0.407-0.551-0.963-0.551-1.668c0-1.346,0.688-2.583,2.066-3.711c1.377-1.127,3.311-1.69,5.801-1.69
			c1.91,0,3.476,0.321,4.697,0.963c0.923,0.485,1.604,1.245,2.043,2.278c0.281,0.674,0.422,2.051,0.422,4.133v7.305
			c0,2.051,0.039,3.307,0.117,3.77c0.078,0.461,0.208,0.771,0.389,0.927c0.18,0.157,0.387,0.235,0.622,0.235
			c0.25,0,0.47-0.055,0.657-0.164c0.329-0.204,0.963-0.775,1.902-1.715v1.314c-1.754,2.35-3.429,3.523-5.025,3.523
			c-0.768,0-1.379-0.267-1.832-0.799C241.367,223.592,241.133,222.684,241.117,221.398z M241.117,219.873v-8.197
			c-2.363,0.939-3.891,1.605-4.579,1.996c-1.237,0.689-2.122,1.41-2.653,2.161c-0.533,0.751-0.799,1.573-0.799,2.466
			c0,1.127,0.336,2.063,1.01,2.807c0.673,0.744,1.447,1.115,2.324,1.115C237.61,222.221,239.176,221.438,241.117,219.873z"/>
		<path fill="#12143C" d="M265.471,222.08c-1.049,1.096-2.074,1.883-3.076,2.36s-2.082,0.716-3.24,0.716
			c-2.35,0-4.4-0.982-6.153-2.947c-1.754-1.965-2.63-4.489-2.63-7.574c0-3.084,0.97-5.906,2.912-8.466
			c1.94-2.56,4.438-3.84,7.491-3.84c1.894,0,3.46,0.603,4.696,1.808v-3.969c0-2.457-0.059-3.969-0.176-4.532
			s-0.301-0.947-0.552-1.151c-0.251-0.203-0.563-0.305-0.939-0.305c-0.407,0-0.947,0.125-1.62,0.376l-0.306-0.822l6.411-2.63h1.057
			v24.871c0,2.521,0.06,4.059,0.177,4.614c0.118,0.556,0.306,0.943,0.563,1.163c0.259,0.219,0.561,0.328,0.904,0.328
			c0.423,0,0.986-0.133,1.691-0.399l0.258,0.822l-6.388,2.653h-1.081V222.08z M265.471,220.436v-11.084
			c-0.094-1.064-0.375-2.035-0.845-2.912s-1.093-1.539-1.867-1.984c-0.774-0.447-1.53-0.67-2.267-0.67
			c-1.377,0-2.606,0.619-3.688,1.855c-1.424,1.629-2.137,4.008-2.137,7.139c0,3.164,0.689,5.586,2.066,7.27
			c1.378,1.684,2.912,2.524,4.604,2.524C262.763,222.573,264.141,221.861,265.471,220.436z"/>
		<path fill="#12143C" d="M277.943,211.089c-0.018,3.194,0.758,5.699,2.324,7.516c1.564,1.816,3.406,2.724,5.52,2.724
			c1.408,0,2.633-0.387,3.676-1.162c1.041-0.775,1.914-2.102,2.617-3.98l0.729,0.469c-0.328,2.146-1.283,4.099-2.865,5.86
			c-1.582,1.761-3.563,2.642-5.941,2.642c-2.584,0-4.795-1.006-6.635-3.018s-2.76-4.717-2.76-8.113c0-3.68,0.943-6.549,2.83-8.607
			s4.254-3.089,7.104-3.089c2.412,0,4.393,0.795,5.943,2.384c1.549,1.59,2.324,3.715,2.324,6.376H277.943z M277.943,209.727h9.957
			c-0.078-1.377-0.242-2.348-0.494-2.912c-0.391-0.877-0.975-1.564-1.748-2.066c-0.775-0.501-1.586-0.752-2.432-0.752
			c-1.299,0-2.463,0.506-3.488,1.516S278.115,207.927,277.943,209.727z"/>
		<path fill="#12143C" d="M302.061,206.932c1.566-1.564,2.49-2.465,2.771-2.7c0.705-0.595,1.465-1.058,2.279-1.386
			c0.813-0.328,1.619-0.493,2.418-0.493c1.348,0,2.506,0.392,3.477,1.175s1.619,1.918,1.949,3.404
			c1.611-1.879,2.975-3.111,4.086-3.698s2.254-0.881,3.43-0.881c1.143,0,2.156,0.294,3.041,0.881s1.584,1.546,2.102,2.877
			c0.344,0.908,0.516,2.333,0.516,4.274v9.253c0,1.347,0.104,2.271,0.307,2.771c0.156,0.346,0.445,0.639,0.869,0.881
			c0.422,0.243,1.111,0.364,2.066,0.364v0.846h-10.615v-0.846h0.445c0.924,0,1.645-0.18,2.162-0.54
			c0.359-0.25,0.617-0.649,0.773-1.197c0.063-0.267,0.094-1.025,0.094-2.278v-9.253c0-1.754-0.211-2.99-0.633-3.711
			c-0.611-1.002-1.59-1.503-2.936-1.503c-0.83,0-1.664,0.208-2.502,0.622c-0.838,0.415-1.852,1.186-3.041,2.313l-0.047,0.259
			l0.047,1.01v10.263c0,1.472,0.082,2.388,0.246,2.747c0.164,0.361,0.475,0.662,0.928,0.904c0.455,0.243,1.229,0.364,2.326,0.364
			v0.846h-10.875v-0.846c1.189,0,2.008-0.141,2.455-0.423c0.445-0.281,0.756-0.704,0.928-1.268c0.078-0.266,0.117-1.041,0.117-2.325
			v-9.253c0-1.754-0.258-3.014-0.775-3.781c-0.689-1.002-1.652-1.504-2.889-1.504c-0.846,0-1.684,0.229-2.512,0.682
			c-1.301,0.689-2.303,1.465-3.008,2.325v11.531c0,1.409,0.098,2.325,0.295,2.747c0.195,0.424,0.484,0.74,0.869,0.951
			c0.383,0.212,1.162,0.317,2.336,0.317v0.846h-10.639v-0.846c0.986,0,1.676-0.105,2.066-0.317c0.391-0.211,0.689-0.547,0.893-1.01
			c0.203-0.461,0.305-1.357,0.305-2.688v-8.22c0-2.364-0.07-3.891-0.211-4.58c-0.109-0.516-0.281-0.872-0.516-1.068
			c-0.236-0.195-0.557-0.293-0.963-0.293c-0.439,0-0.963,0.117-1.574,0.352l-0.352-0.846l6.48-2.63h1.01V206.932z"/>
		<path fill="#12143C" d="M331.865,202.986h10.027v0.869h-0.494c-0.703,0-1.232,0.152-1.584,0.458
			c-0.354,0.306-0.529,0.685-0.529,1.14c0,0.609,0.26,1.455,0.775,2.535l5.236,10.852l4.814-11.885c0.268-0.641,0.4-1.275,0.4-1.902
			c0-0.281-0.055-0.492-0.164-0.633c-0.127-0.173-0.322-0.31-0.588-0.412c-0.266-0.102-0.736-0.152-1.408-0.152v-0.869h6.998v0.869
			c-0.58,0.063-1.025,0.188-1.338,0.376c-0.314,0.188-0.658,0.54-1.035,1.057c-0.141,0.22-0.406,0.822-0.797,1.809l-8.76,21.466
			c-0.846,2.082-1.955,3.655-3.324,4.72c-1.369,1.065-2.689,1.598-3.957,1.598c-0.924,0-1.684-0.267-2.277-0.799
			c-0.596-0.532-0.893-1.144-0.893-1.832c0-0.657,0.215-1.187,0.645-1.585c0.432-0.399,1.021-0.6,1.773-0.6
			c0.518,0,1.221,0.173,2.113,0.518c0.627,0.234,1.018,0.352,1.176,0.352c0.469,0,0.982-0.242,1.537-0.728
			c0.557-0.485,1.115-1.425,1.68-2.818l1.527-3.734l-7.727-16.228c-0.236-0.485-0.611-1.088-1.129-1.809
			c-0.391-0.548-0.713-0.916-0.963-1.104c-0.359-0.251-0.939-0.471-1.736-0.658V202.986z"/>
	</g>
</g>
</svg>
